<svg width="30" height="30" viewBox="0 0 30 30" fill="none" xmlns="http://www.w3.org/2000/svg">
<path d="M6.87846 17.333H5.8718C5.3827 17.333 4.94255 17.6298 4.75925 18.0833L1.55252 26.0166C1.23367 26.8054 1.81425 27.6663 2.66507 27.6663H27.3351C28.1859 27.6663 28.7665 26.8054 28.4476 26.0166L25.2409 18.0833C25.0576 17.6298 24.6175 17.333 24.1284 17.333H23.1215C22.6164 18.0354 22.0728 18.7042 21.5148 19.333H23.5888L26.1488 25.6663H3.85132L6.41132 19.333H8.48521C7.92717 18.7042 7.38356 18.0354 6.87846 17.333Z" fill="#727272"/>
<path d="M22.5788 10.833C22.5788 16.6663 14.9998 21.6663 14.9998 21.6663C14.9998 21.6663 7.4209 16.6663 7.4209 10.833C7.4209 8.84388 8.21939 6.93623 9.64072 5.52971C11.062 4.12318 12.9898 3.33301 14.9998 3.33301C17.0099 3.33301 18.9376 4.12318 20.359 5.52971C21.7803 6.93623 22.5788 8.84388 22.5788 10.833Z" stroke="#727272" stroke-width="2" stroke-linecap="round" stroke-linejoin="round"/>
<path d="M14.9998 13.333C16.3951 13.333 17.5262 12.2137 17.5262 10.833C17.5262 9.4523 16.3951 8.33301 14.9998 8.33301C13.6046 8.33301 12.4735 9.4523 12.4735 10.833C12.4735 12.2137 13.6046 13.333 14.9998 13.333Z" stroke="#727272" stroke-width="2" stroke-linecap="round" stroke-linejoin="round"/>
</svg>
