<svg width="26" height="22" viewBox="0 0 26 22" fill="none" xmlns="http://www.w3.org/2000/svg">
<path d="M1 5.52546C1 2.90728 3.18182 1.70728 4.81818 1.70728H21.1818C23.6175 1.70728 25 4.25273 25 5.52546V16.2576C25 17.4567 24.8898 18.7244 24.1377 19.6583C22.4149 21.7977 20.0064 20.1682 19.5455 19.7073C19 19.1618 16.8182 14.7982 13 14.7982C9.18182 14.7982 9.18182 16.98 5.90909 19.7073C4.23971 21.0984 2.92513 20.6416 2.05019 19.7508C1.12592 18.8098 1 17.3965 1 16.0774V5.52546Z" stroke="#727272" stroke-width="2"/>
<circle cx="7.54547" cy="8.25262" r="2.18182" fill="#727272"/>
<circle cx="18.4546" cy="5.52548" r="1.09091" fill="#727272"/>
<circle cx="15.7273" cy="8.25277" r="1.09091" fill="#727272"/>
<circle cx="18.4546" cy="10.9801" r="1.09091" fill="#727272"/>
<circle cx="21.1819" cy="8.25277" r="1.09091" fill="#727272"/>
</svg>
