<svg width="16" height="16" viewBox="0 0 16 16" fill="none" xmlns="http://www.w3.org/2000/svg">
<path d="M7.20584 1.57167C7.34653 1.41454 7.51877 1.28885 7.71133 1.2028C7.90389 1.11674 8.11243 1.07227 8.32334 1.07227C8.53425 1.07227 8.74279 1.11674 8.93534 1.2028C9.1279 1.28885 9.30015 1.41454 9.44084 1.57167L9.96584 2.15817C10.1159 2.32579 10.3017 2.45752 10.5096 2.54359C10.7174 2.62966 10.942 2.66788 11.1666 2.65542L11.9541 2.61192C12.1647 2.60031 12.3754 2.63326 12.5725 2.70861C12.7695 2.78397 12.9484 2.90003 13.0976 3.04924C13.2467 3.19844 13.3627 3.37742 13.4379 3.57449C13.5132 3.77156 13.546 3.98229 13.5343 4.19292L13.4908 4.97967C13.4785 5.20417 13.5168 5.42857 13.6028 5.63628C13.6889 5.844 13.8206 6.0297 13.9881 6.17967L14.5746 6.70467C14.7318 6.84536 14.8576 7.01765 14.9438 7.21028C15.0299 7.40291 15.0744 7.61154 15.0744 7.82254C15.0744 8.03355 15.0299 8.24218 14.9438 8.43481C14.8576 8.62744 14.7318 8.79972 14.5746 8.94042L13.9881 9.46542C13.8205 9.61546 13.6887 9.80129 13.6027 10.0091C13.5166 10.217 13.4784 10.4415 13.4908 10.6662L13.5343 11.4537C13.5459 11.6643 13.513 11.875 13.4376 12.0721C13.3623 12.2691 13.2462 12.448 13.097 12.5971C12.9478 12.7463 12.7688 12.8623 12.5718 12.9375C12.3747 13.0128 12.164 13.0456 11.9533 13.0339L11.1666 12.9904C10.9421 12.9781 10.7177 13.0163 10.51 13.1024C10.3023 13.1885 10.1166 13.3201 9.96659 13.4877L9.44159 14.0742C9.30089 14.2314 9.1286 14.3572 8.93598 14.4433C8.74335 14.5295 8.53472 14.574 8.32371 14.574C8.11271 14.574 7.90408 14.5295 7.71145 14.4433C7.51882 14.3572 7.34653 14.2314 7.20584 14.0742L6.68084 13.4877C6.53079 13.32 6.34496 13.1883 6.13711 13.1022C5.92926 13.0162 5.70471 12.978 5.48009 12.9904L4.69259 13.0339C4.48195 13.0455 4.27124 13.0126 4.0742 12.9372C3.87717 12.8619 3.69824 12.7458 3.54911 12.5966C3.39998 12.4474 3.284 12.2684 3.20874 12.0713C3.13347 11.8743 3.10063 11.6635 3.11234 11.4529L3.15584 10.6662C3.16819 10.4417 3.12991 10.2173 3.04384 10.0096C2.95777 9.80184 2.82611 9.61613 2.65859 9.46617L2.07209 8.94117C1.91484 8.80047 1.78904 8.62818 1.70291 8.43556C1.61678 8.24293 1.57227 8.0343 1.57227 7.82329C1.57227 7.61229 1.61678 7.40366 1.70291 7.21103C1.78904 7.0184 1.91484 6.84611 2.07209 6.70542L2.65859 6.18042C2.82621 6.03037 2.95793 5.84454 3.04401 5.63669C3.13008 5.42884 3.1683 5.20429 3.15584 4.97967L3.11234 4.19217C3.10084 3.9816 3.13387 3.77096 3.20927 3.57402C3.28467 3.37707 3.40076 3.19824 3.54995 3.04919C3.69914 2.90015 3.87808 2.78423 4.0751 2.70901C4.27211 2.6338 4.48278 2.60097 4.69334 2.61267L5.48009 2.65617C5.70459 2.66852 5.92899 2.63025 6.1367 2.54417C6.34442 2.4581 6.53012 2.32644 6.68009 2.15892L7.20584 1.57167Z" stroke="#727272" stroke-width="1.5"/>
<path d="M6.44922 5.94922H6.45672V5.95672H6.44922V5.94922ZM10.1992 9.69922H10.2067V9.70672H10.1992V9.69922Z" stroke="#727272" stroke-width="1.5" stroke-linejoin="round"/>
<path d="M10.5723 5.57227L6.07227 10.0723" stroke="#727272" stroke-width="1.5" stroke-linecap="round" stroke-linejoin="round"/>
</svg>
