<svg width="30" height="30" viewBox="0 0 30 30" fill="none" xmlns="http://www.w3.org/2000/svg">
<path d="M13 3.95C13 3.83954 12.9105 3.75 12.8 3.75H3.95C3.83954 3.75 3.75 3.83954 3.75 3.95V16.05C3.75 16.1605 3.83954 16.25 3.95 16.25H12.8C12.9105 16.25 13 16.1605 13 16.05V3.95Z" stroke="#727272" stroke-width="2" stroke-linecap="round" stroke-linejoin="round"/>
<path d="M26.25 3.95C26.25 3.83954 26.1605 3.75 26.05 3.75H17.2C17.0895 3.75 17 3.83954 17 3.95V8.8C17 8.91046 17.0895 9 17.2 9H26.05C26.1605 9 26.25 8.91046 26.25 8.8V3.95Z" stroke="#727272" stroke-width="2" stroke-linecap="round" stroke-linejoin="round"/>
<path d="M26.25 13.2C26.25 13.0895 26.1605 13 26.05 13H17.2C17.0895 13 17 13.0895 17 13.2V26.05C17 26.1605 17.0895 26.25 17.2 26.25H26.05C26.1605 26.25 26.25 26.1605 26.25 26.05V13.2Z" stroke="#727272" stroke-width="2" stroke-linecap="round" stroke-linejoin="round"/>
<path d="M13 20.2C13 20.0895 12.9105 20 12.8 20H3.95C3.83954 20 3.75 20.0895 3.75 20.2V26.05C3.75 26.1605 3.83954 26.25 3.95 26.25H12.8C12.9105 26.25 13 26.1605 13 26.05V20.2Z" stroke="#727272" stroke-width="2" stroke-linecap="round" stroke-linejoin="round"/>
</svg>
