<svg width="16" height="13" viewBox="0 0 16 13" fill="none" xmlns="http://www.w3.org/2000/svg">
<path fill-rule="evenodd" clip-rule="evenodd" d="M12.8319 0.313839C12.8891 0.394008 12.93 0.484666 12.9522 0.580635C12.9744 0.676604 12.9774 0.776004 12.9612 0.873159C12.945 0.970315 12.9098 1.06332 12.8576 1.14687C12.8054 1.23042 12.7373 1.30287 12.6571 1.36009L11.0814 2.48584C10.839 2.65871 10.6547 2.90093 10.5527 3.1806C10.4507 3.46027 10.4358 3.76427 10.5099 4.05259L13.0171 1.54534C13.0863 1.47371 13.1691 1.41657 13.2606 1.37726C13.3521 1.33796 13.4505 1.31727 13.5501 1.3164C13.6497 1.31554 13.7484 1.33451 13.8406 1.37222C13.9328 1.40993 14.0165 1.46562 14.0869 1.53604C14.1573 1.60646 14.213 1.6902 14.2507 1.78237C14.2885 1.87455 14.3074 1.9733 14.3066 2.07289C14.3057 2.17247 14.285 2.27089 14.2457 2.36239C14.2064 2.4539 14.1493 2.53665 14.0776 2.60584L11.5704 5.11309C11.8587 5.18721 12.1627 5.17229 12.4424 5.07027C12.722 4.96826 12.9643 4.78394 13.1371 4.54159L14.2629 2.96584C14.3806 2.80964 14.5547 2.70561 14.748 2.67592C14.9413 2.64623 15.1386 2.69323 15.2977 2.8069C15.4569 2.92058 15.5653 3.09192 15.6 3.28442C15.6346 3.47691 15.5927 3.67532 15.4831 3.83734L14.3581 5.41384C13.9263 6.01814 13.2842 6.4391 12.5578 6.59398C11.8314 6.74885 11.0734 6.62646 10.4326 6.25084L8.70988 7.97359L11.8276 11.0913C11.9642 11.2328 12.0398 11.4222 12.0381 11.6189C12.0364 11.8155 11.9575 12.0036 11.8185 12.1427C11.6794 12.2818 11.4913 12.3606 11.2947 12.3623C11.098 12.3641 10.9086 12.2885 10.7671 12.1518L7.64938 9.03409L4.53163 12.1518C4.46244 12.2235 4.37969 12.2806 4.28818 12.3199C4.19668 12.3592 4.09826 12.3799 3.99868 12.3808C3.8991 12.3816 3.80034 12.3627 3.70816 12.325C3.61599 12.2872 3.53225 12.2316 3.46183 12.1611C3.39141 12.0907 3.33572 12.007 3.29801 11.9148C3.2603 11.8226 3.24133 11.7239 3.24219 11.6243C3.24306 11.5247 3.26375 11.4263 3.30305 11.3348C3.34236 11.2433 3.3995 11.1605 3.47113 11.0913L6.58888 7.97359L5.38138 6.76609C5.03413 6.95359 4.61863 7.09609 4.17688 7.14784C3.72828 7.20442 3.27266 7.15595 2.846 7.00627C2.41934 6.85658 2.03331 6.60978 1.71838 6.28534C1.02163 5.58784 0.623379 4.71109 0.524379 3.86884C0.426879 3.04009 0.614379 2.15209 1.22188 1.54534C1.82863 0.937839 2.71588 0.750339 3.54463 0.847839C4.38688 0.947589 5.26438 1.34584 5.96113 2.04259C6.28557 2.35752 6.53237 2.74355 6.68206 3.17021C6.83174 3.59687 6.88021 4.05249 6.82363 4.50109C6.77302 4.92283 6.64324 5.33123 6.44113 5.70484L7.64938 6.91234L9.37213 5.19034C8.99673 4.54969 8.87445 3.79181 9.02933 3.06561C9.1842 2.3394 9.60502 1.69735 10.2091 1.26559L11.7856 0.139839C11.9474 0.0241786 12.1486 -0.0224662 12.3448 0.0101648C12.541 0.0427957 12.7162 0.15203 12.8319 0.313839ZM2.01388 3.69334C2.07388 4.20334 2.32213 4.76809 2.77888 5.22409C3.17038 5.61559 3.60313 5.70409 4.00213 5.65759C4.43713 5.60659 4.79413 5.39659 4.93363 5.25784C5.07313 5.11909 5.28238 4.76134 5.33338 4.32634C5.38063 3.92659 5.29213 3.49384 4.90063 3.10309C4.44313 2.64634 3.87913 2.39809 3.36913 2.33809C2.84563 2.27659 2.46988 2.41759 2.28163 2.60584C2.09338 2.79409 1.95238 3.16909 2.01388 3.69334Z" fill="#727272"/>
</svg>
