<svg width="328" height="292" viewBox="0 0 328 292" fill="none" xmlns="http://www.w3.org/2000/svg">
<g clip-path="url(#clip0_219_3974)">
<path d="M-51.3911 147.205C-61.3745 147.726 -71.35 148.388 -81.3334 148.723C-87.9059 148.941 -94.494 148.505 -101.066 148.723C-106.05 148.887 -110.622 147.469 -115.232 145.959C-116.073 145.648 -116.914 145.344 -117.755 145.032C-118.619 144.674 -119.491 144.316 -120.356 143.958C-122.793 142.346 -125.456 141.575 -128.346 141.186C-133.438 140.509 -138.492 139.52 -143.562 138.656C-144.769 138.484 -145.968 138.321 -147.175 138.149C-147.977 137.877 -148.764 137.402 -149.582 137.355C-156.17 137.005 -162.758 136.468 -169.346 136.491C-179.228 136.522 -189.11 136.958 -199 137.223C-199 136.639 -199 136.047 -199 135.463C-195.153 135.206 -191.306 134.77 -187.451 134.724C-171.861 134.537 -156.224 133.423 -140.797 137.013C-138.025 137.659 -135.152 137.854 -132.309 138.188C-131.881 138.243 -131.398 137.9 -130.946 137.745C-131.32 137.566 -131.671 137.324 -132.06 137.215C-140.634 134.918 -149.317 133.244 -158.21 133.034C-165.53 132.863 -172.85 132.59 -180.17 132.699C-186.447 132.793 -192.723 133.353 -199 133.704V131.944C-194.32 130.223 -189.406 130.169 -184.539 130.13C-176.923 130.067 -169.307 130.153 -161.691 130.418C-150.781 130.807 -139.972 132.014 -129.444 135.191C-124.094 136.802 -118.541 137.83 -113.363 139.862C-108.714 141.684 -104.104 142.572 -99.1586 142.736C-88.965 143.07 -78.7714 143.569 -68.5933 142.588C-62.0286 141.949 -55.4872 141.061 -48.9147 140.571C-36.0189 139.605 -23.1231 138.897 -10.2584 141.209C0.028656 143.063 10.3547 144.705 20.6651 146.395C24.8936 147.088 29.1377 147.672 33.3818 148.264C34.2151 148.38 35.095 148.349 35.9361 148.24C38.0464 147.96 40.1101 147.501 41.8155 149.486C42.2749 150.023 43.2795 150.078 44.0349 150.35C43.334 150.654 42.5241 150.818 41.9634 151.3C40.7175 152.367 39.5961 153.589 38.428 154.75C37.8206 154.282 37.2054 153.823 36.598 153.356C36.341 154.088 36.084 154.827 35.827 155.559C33.3584 156.003 31.1391 155.232 28.9897 154.119C22.3627 153.488 15.7357 152.865 9.10869 152.235C5.838 151.401 2.5829 150.522 -0.703354 149.759C-3.44449 149.128 -6.21678 148.637 -8.9735 148.085C-11.9872 146.558 -15.1956 145.982 -18.5363 145.959C-20.2573 145.951 -22.0017 146.037 -23.6993 145.811C-33.0208 144.55 -42.2176 145.616 -51.3989 147.205H-51.3911ZM-127.24 138.445C-127.785 138.313 -128.33 138.126 -128.883 138.056C-129.124 138.025 -129.397 138.22 -129.654 138.313C-129.405 138.508 -129.171 138.835 -128.906 138.858C-128.353 138.897 -127.793 138.772 -127.232 138.718C-126.998 138.679 -126.757 138.64 -126.523 138.601C-126.765 138.547 -126.998 138.492 -127.24 138.438V138.445ZM32.385 152.235C32.4551 152.453 32.5252 152.663 32.5953 152.881C32.7355 152.764 32.8834 152.647 33.0236 152.53C32.8289 152.414 32.6342 152.297 32.4395 152.18C32.6654 151.012 32.0891 150.709 31.0378 150.592C27.9229 150.257 24.8002 149.922 21.7086 149.408C11.5695 147.719 1.44595 145.943 -8.69315 144.223C-10.8035 143.864 -12.9217 143.592 -15.0398 143.319C-15.2735 143.288 -15.546 143.53 -15.803 143.646C-15.6005 143.794 -15.4136 144.036 -15.1878 144.09C-8.50626 145.616 -1.86366 147.438 4.88795 148.56C14.0069 150.07 23.2115 151.036 32.3772 152.227L32.385 152.235ZM-61.7483 144.822C-58.1894 144.76 -54.6151 144.838 -51.064 144.604C-46.9368 144.332 -42.8406 143.522 -38.7133 143.413C-32.3978 143.242 -26.0667 143.475 -19.7512 143.53C-19.3229 143.53 -18.879 143.576 -18.4662 143.499C-18.2093 143.452 -17.9912 143.203 -17.7576 143.047C-17.9834 142.899 -18.2015 142.65 -18.4429 142.619C-19.0114 142.533 -19.5876 142.541 -20.1639 142.525C-34.0799 142.198 -47.9803 142.222 -61.7483 144.69C-65.0034 144.884 -68.2585 145.235 -71.5136 145.25C-81.2867 145.305 -91.052 145.095 -100.825 145.258C-105.396 145.336 -109.492 144.044 -113.643 142.37C-117.069 140.984 -120.698 140.112 -124.242 139.06C-124.608 138.951 -125.067 139.169 -125.48 139.24C-125.122 139.45 -124.779 139.707 -124.397 139.855C-120.387 141.357 -116.322 142.72 -112.374 144.378C-109.819 145.453 -107.304 146.091 -104.516 146.146C-97.6634 146.27 -90.8261 146.068 -83.9499 146.566C-76.8635 147.08 -69.668 146.076 -62.527 145.686C-62.2466 145.671 -61.9975 145.134 -61.7405 144.83L-61.7483 144.822Z" fill="#040303"/>
<path d="M269.478 20.0338C269.891 20.0338 270.304 20.0416 270.716 20.0494C272.624 19.5822 273.691 21.1628 275.093 21.9103C275.031 22.0426 274.992 22.1984 274.898 22.2996C274.454 22.7979 273.987 23.2806 273.535 23.7634C274.112 23.8724 274.758 24.215 275.249 24.0515C278.893 22.868 282.53 21.6923 286.408 21.7078L286.439 21.7312C286.244 23.0003 285.434 23.5298 284.329 24.0515C283.425 24.4719 283.729 25.78 284.702 25.9746C285.396 26.1148 286.128 26.1148 286.836 26.0759C292.287 25.8111 297.614 26.2627 302.917 27.8745C306.943 29.0969 310.455 31.0512 312.667 34.5238C314.91 38.0432 317.97 39.0631 321.638 39.3512C322.627 41.3133 325.15 42.5591 324.317 45.3699C323.896 45.4166 323.476 45.4634 323.047 45.5179C322.378 45.5957 321.708 45.6736 321.038 45.7514C321.521 46.1641 321.949 46.6702 322.494 46.9661C323.624 47.5812 324.924 47.916 325.952 48.6557C328.241 50.3141 328.187 52.2762 325.64 53.5765C323.803 54.5109 324.099 55.2428 325.103 56.5353C325.968 57.6565 327.003 58.8555 327.323 60.1792C330.009 71.1888 324.776 82.0971 312.628 82.6889C312.246 82.5254 311.647 82.4631 311.514 82.175C310.276 79.5355 308.867 76.9427 308.057 74.1631C307.667 72.8316 308.197 71.0253 308.789 69.6471C309.505 67.9809 310.743 66.5404 311.74 64.991C312.363 64.0177 312.122 63.1535 310.961 63.2936C307.644 63.6907 304.988 62.1958 302.341 60.5451C302.232 60.475 302.06 60.5218 301.92 60.5062C301.632 60.2103 301.336 59.9222 301.048 59.6264C299.709 57.5085 298.945 55.2583 299.218 52.6655C299.405 50.8592 298.416 49.9871 296.64 50.0182C295.496 50.0416 294.351 50.0416 293.206 50.0338C288.838 50.0027 284.391 50.5944 280.357 48.1651L280.318 48.1496C280.014 47.8771 279.719 47.6045 279.415 47.3398C279.329 47.153 279.306 46.9661 279.345 46.7636C279.921 46.2653 280.497 45.7592 281.074 45.2609C280.614 44.8015 280.201 44.0385 279.672 43.9373C275.459 43.1353 272.04 44.965 268.941 47.6201C268.863 47.6902 269.073 48.1184 269.143 48.3754C268.513 48.4688 267.679 48.3287 267.29 48.6946C262.547 53.1093 260.281 58.6297 261.395 65.1C261.862 67.8252 262.602 70.1299 260.079 72.1153C259.705 72.4112 259.69 73.1587 259.503 73.6959C258.771 75.7437 258.296 75.9539 256.504 75.0429C254.308 73.9217 254.285 73.9217 254.324 76.3432C254.394 80.501 253.818 84.3863 250.921 87.672C248.188 90.7709 248.709 92.4761 252.673 94.4693C252.65 95.7696 252.782 97.101 252.564 98.3624C252.408 99.2734 252.027 100.511 251.349 100.901C248.484 102.559 245.493 103.992 242.503 105.401C242.098 105.596 241.428 105.199 240.875 105.066C241.592 103.587 241.997 102.248 239.738 101.796C238.905 101.633 238.15 101.119 237.316 100.932C233.664 100.091 229.615 100.239 227.123 96.5638C227.068 96.4781 226.843 96.5249 226.71 96.4704C223.042 95.0455 219.234 94.4615 215.348 94.7652C211.315 95.0766 208.34 97.7862 207.483 101.975C207.024 104.218 207.086 106.569 206.821 108.858C206.751 109.481 206.518 110.431 206.089 110.626C202.655 112.175 199.088 113.249 195.288 112.339C194.081 112.05 192.874 110.859 191.823 112.144C191.613 112.401 192.975 113.818 193.341 114.807C193.606 115.531 193.653 116.535 193.349 117.205C193.178 117.579 191.94 117.843 191.449 117.594C189.565 116.652 187.735 115.578 186.014 114.363C185.266 113.833 184.666 113.055 183.942 114.02C183.693 114.355 183.989 115.375 184.339 115.85C185.087 116.886 186.029 117.765 186.894 118.715C184.861 119.315 182.836 119.914 180.804 120.514C179.371 120.023 177.907 119.595 176.513 119.011C175.415 118.552 173.562 117.283 173.484 117.392C172.238 119.221 174.496 119.93 174.878 121.316C172.876 123.605 172.378 123.683 168.92 122.258C167.744 115.539 164.287 110.478 158.345 107.27C154.888 105.401 151.134 104.669 147.264 104.428C147.279 102.645 147.567 100.807 146.298 99.2656C146.283 98.9775 146.298 98.6816 146.36 98.4013C146.212 97.5371 146.065 96.6728 145.917 95.8163C147.194 95.8008 148.479 95.8864 149.732 95.7073C150.013 95.6684 150.332 94.7341 150.348 94.2046C150.363 93.6829 150.013 93.1535 149.826 92.624C150.815 90.7631 152.131 89.3772 153.992 88.256C156.102 86.9791 157.691 84.9002 157.777 82.1984C157.831 80.3764 156.764 80.3608 155.526 81.2485C153.244 79.154 150.706 77.7758 147.497 78.1418C144.686 78.461 141.852 79.0683 139.056 78.9282C132.273 78.5934 125.506 77.9004 118.731 77.3476C118.653 77.1374 118.575 76.9349 118.49 76.7247L117.929 77.3087C116.823 77.1919 115.702 77.1685 114.619 76.9427C111.107 76.2186 107.611 75.4244 104.114 74.6536C103.795 74.42 103.476 74.1786 103.156 73.9451C102.603 73.8983 102.043 73.8516 101.49 73.8049C101.466 73.1042 101.443 72.4112 101.412 71.7104C101.069 71.1888 100.789 70.6204 100.376 70.161C99.9635 69.7016 99.177 69.4602 98.9901 68.9541C97.7286 65.5205 97.7597 65.466 94.38 65.7774C93.648 65.8475 92.9471 66.2991 92.2385 66.5716C92.9004 66.9064 93.6324 67.1555 94.2165 67.5916C95.2133 68.3313 96.2568 69.0943 96.9654 70.0831C97.1212 70.2934 95.8363 71.4613 95.369 72.2788C94.9563 73.0029 94.7616 73.8594 94.4734 74.6614C94.2398 74.677 94.0062 74.6692 93.7726 74.638C92.8926 73.1976 92.0127 73.2677 91.1405 74.6458C87.3714 74.3733 83.6023 74.1086 79.8333 73.8361L79.8878 73.8828C79.5296 73.5635 79.1713 73.2521 78.8131 72.9329C77.4971 69.468 77.5671 69.3435 80.7989 69.25C81.4998 69.2267 82.2318 69.3201 82.8937 69.1332C83.3376 69.0087 83.6724 68.4948 84.0618 68.1522C83.6257 67.7006 83.2597 66.9765 82.7457 66.8519C81.5309 66.5638 80.2538 66.5638 79 66.4392C79.3972 65.3258 78.2291 63.4493 80.4874 63.2235C81.0559 63.2391 81.6322 63.3092 82.2006 63.2703C85.5414 63.0367 85.4635 63.0133 86.0398 59.4706C86.3123 57.781 86.6706 55.9824 87.4882 54.5264C91.1249 48.0094 95.6026 42.2321 102.105 38.3858C103.219 37.7317 104.223 36.8519 105.391 36.3536C107.003 35.6684 106.855 34.4226 106.731 33.099C107.393 31.5339 108.693 31.3782 110.118 31.4872L110.204 33.278L109.589 33.6596C109.892 33.7686 110.204 33.8776 110.508 33.9788C112.626 34.407 112.532 32.6474 112.961 31.4016C114.004 31.4016 115.048 31.4094 116.083 31.4172C116.395 32.855 117.246 33.1639 118.638 32.3437C119.268 32.3437 119.899 32.3437 120.53 32.3437C120.88 32.4138 121.231 32.4839 121.589 32.5539C121.823 33.1223 122.103 34.1968 122.274 34.1735C123.536 34.0411 124.758 33.644 126.02 33.4416C126.207 33.4104 126.69 34.1501 126.674 34.1579C124.844 35.9565 125.771 36.7507 127.647 37.5371C128.434 37.8641 129.314 38.7517 129.54 39.5615C131.175 45.5568 136.112 48.5155 140.388 52.0738C141.828 53.2729 143.277 53.086 144.554 51.6923C145.878 52.4164 146.15 54.5731 148.128 54.4096C148.775 54.4719 149.421 54.5342 150.067 54.5965C149.935 55.5698 150.114 56.6053 151.274 56.2238C152.092 55.9513 152.917 55.0559 153.299 54.2228C156.134 48.0484 155.682 41.6404 153.649 35.4737C152.637 32.3982 150.986 29.1592 147.832 27.5786C146.314 26.8155 146.08 26.6209 146.929 24.9079C147.77 23.2028 147.529 21.0227 148.689 19.1929C154.825 9.52253 164.1 5.21679 174.73 3.40262C181.084 2.32035 187.485 2.49164 193.957 3.08339C203.769 3.9788 212.218 7.38134 219.211 14.5057C219.717 15.0195 220.62 15.2921 221.368 15.3777C222.871 15.5412 224.413 15.3777 225.916 15.5568C227.31 15.7281 227.684 14.9962 227.808 13.8516C230.067 15.2064 232.995 15.7748 233.649 19.0138C232.372 19.1462 231.087 19.2318 229.825 19.4499C229.475 19.5121 228.875 20.1039 228.93 20.2363C229.101 20.6879 229.514 21.3886 229.841 21.3964C233.361 21.4587 236.803 22.3541 240.431 21.3575C247.518 19.4109 254.745 17.8303 261.021 23.8335C261.403 24.1994 262.368 24.2928 262.898 24.0904C264.884 23.3196 266.831 22.4319 268.731 21.4509C269.128 21.2485 269.245 20.4776 269.494 19.9715L269.478 20.0338ZM120.701 65.7696C119.338 65.8319 118.326 65.8241 117.337 65.9565C117.026 65.9954 116.769 66.4392 116.488 66.6962C116.737 66.9765 116.994 67.4981 117.244 67.4981C119.268 67.4981 121.207 67.5604 122.072 69.9819C122.118 70.1143 123.458 70.0442 123.528 69.8262C123.847 68.9074 124.174 67.8329 123.972 66.9453C123.855 66.4314 122.757 66.0577 122.041 65.8085C121.527 65.6295 120.904 65.7774 120.693 65.7774L120.701 65.7696ZM248.803 99.5693C247.642 98.339 246.833 97.3891 245.929 96.5482C245.392 96.0499 244.699 95.7307 244.084 95.3258C244.123 96.1589 243.85 97.2256 244.263 97.7707C245.003 98.7517 246.108 99.4758 247.152 100.161C247.393 100.317 248.008 99.8729 248.811 99.5693H248.803Z" fill="#E59112"/>
<path d="M147.256 104.459C151.126 104.7 154.88 105.432 158.337 107.301C164.279 110.509 167.737 115.57 168.913 122.289C168.718 124.773 167.464 126.424 165.237 127.467C163.742 128.168 162.356 129.125 160.923 129.966C160.596 129.888 160.269 129.811 159.942 129.733C160.004 129.904 160.066 130.075 160.136 130.254C156.788 131.002 153.463 132.069 150.075 132.419C144.421 132.995 138.783 134.63 133.005 133.034C131.915 132.73 130.498 133.229 129.353 133.673C128.037 134.179 126.845 135.035 125.599 135.736C122.134 136.717 118.778 135.79 115.406 135.105C115.227 134.903 115.079 134.638 114.861 134.498C110.71 131.804 107.696 128.542 108.709 122.928C108.849 122.157 108.062 121.215 107.712 120.358C107.766 120.21 107.821 120.07 107.868 119.922C107.766 119.992 107.673 120.07 107.572 120.14C107.268 119.081 106.964 118.022 106.653 116.964C107.276 116.107 107.766 115.881 108.561 116.932C110.414 119.401 110.508 119.393 112.525 117.501C117.734 112.603 123.801 109.925 130.942 109.754C132.11 109.722 133.254 108.936 134.407 108.492C135.474 108.741 136.657 109.247 136.72 107.363C139.227 105.058 142.412 104.918 145.519 104.513C146.103 104.49 146.68 104.475 147.264 104.451L147.256 104.459Z" fill="#040303"/>
<path d="M160.923 129.974C162.356 129.133 163.742 128.176 165.237 127.475C167.464 126.432 168.71 124.781 168.913 122.297C172.37 123.722 172.876 123.644 174.87 121.355C176.209 121.76 177.533 122.336 178.904 122.523C180.111 122.686 181.185 122.235 180.796 120.561C182.829 119.961 184.853 119.362 186.886 118.762C187.275 118.941 187.696 119.074 188.038 119.315C189.837 120.537 191.877 120.748 193.785 120.094C195.428 119.525 195.732 117.797 195.849 116.099C195.872 115.718 196.799 115.11 197.313 115.103C201.246 115.048 204.828 113.608 208.457 112.331C209.173 112.432 209.882 112.525 210.598 112.627C218.923 114.277 226.983 114.044 234.404 109.154C236.522 107.76 238.71 106.46 240.86 105.113C241.413 105.238 242.082 105.635 242.487 105.448C245.478 104.039 248.468 102.606 251.334 100.947C252.003 100.558 252.393 99.3202 252.548 98.4092C252.767 97.1401 252.634 95.8164 252.658 94.5161C252.081 91.8533 252.229 89.6264 254.16 87.2205C255.64 85.3752 255.882 82.4943 256.676 80.0728C256.925 79.3098 257.213 78.5545 257.478 77.7915C257.821 77.846 258.163 77.9005 258.506 77.955C259.238 78.0484 260.383 77.8694 260.64 78.2742C261.87 80.213 263.521 80.1351 265.351 79.6913C265.818 80.1196 266.355 80.4855 266.729 80.9838C267.267 81.7001 267.687 82.5177 268.162 83.2885C267.453 83.3664 266.69 83.2963 266.067 83.5688C265.514 83.8102 265.109 84.4331 264.642 84.8847C265.039 85.2428 265.468 85.9436 265.826 85.9124C267.43 85.7567 267.991 86.7611 268.731 87.9291C269.494 89.1359 270.467 90.3739 271.651 91.098C278.231 95.1468 285.185 96.4393 292.474 93.2003C294.117 92.4684 295.254 91.6197 296.851 93.5273C298.058 94.9677 300.059 94.4928 301.655 93.6207C303.906 92.3905 305.534 90.6386 305.736 87.8668C307.846 87.5787 309.949 87.2906 312.059 87.0025C312.822 88.3184 313.671 88.6687 314.59 87.166C314.987 86.5275 315.182 85.3285 315.649 85.2273C320.244 84.2462 323.39 80.9838 326.793 78.1185C326.738 79.9249 328.545 81.4666 327.276 83.5065C325.329 86.6443 322.954 89.1826 319.504 90.553C315.509 92.1414 311.242 93.0445 307.597 95.5361C307.161 95.832 306.515 95.8398 305.962 95.9176C301.103 96.6028 296.485 98.6116 291.485 98.526C288.324 98.4637 285.154 98.6272 282 98.4715C279.181 98.3313 276.378 97.9031 273.574 97.5449C273.224 97.4982 272.718 97.2023 272.601 96.8987C271.635 94.3215 269.252 93.8855 267.134 93.3015C265.421 92.8265 264.12 91.9701 263.871 90.3194C263.599 88.4741 262.47 88.8634 261.387 88.7855C260.203 88.6999 259.674 89.0658 259.417 90.4051C259.183 91.6041 258.163 92.6241 257.665 93.7998C257.291 94.6796 256.691 96.0189 257.05 96.5872C259.02 99.655 256.652 102.076 255.593 104.171C254.449 106.437 251.988 108.71 249.628 109.473C244.862 111.015 240.283 113.545 235.066 113.46C234.536 113.452 233.96 113.701 233.477 113.981C227.497 117.4 220.745 118.085 214.219 119.533C212.568 119.899 210.777 119.626 209.056 119.626C206.058 119.626 203.379 120.514 200.591 121.744C196.519 123.551 192.259 125.022 187.797 125.824C184.993 126.323 182.299 126.938 179.418 126.424C178.499 126.26 177.393 126.852 176.451 127.28C174.41 128.199 172.448 129.328 170.392 130.208C166.132 132.038 161.795 133.641 157.193 134.358C156.492 134.467 155.768 134.638 155.082 134.56C150.316 134 145.823 135.207 141.361 136.663C140.831 136.834 140.286 137.208 139.772 137.176C135.591 136.912 131.417 137.932 127.219 137.246C126.246 137.091 125.568 136.881 125.568 135.744C126.814 135.043 128.006 134.187 129.322 133.68C130.474 133.237 131.884 132.738 132.974 133.042C138.752 134.638 144.39 133.011 150.044 132.427C153.431 132.084 156.757 131.01 160.105 130.262C160.409 130.278 160.674 130.184 160.892 129.974H160.923Z" fill="#AFAFAF"/>
<path d="M205.108 173.374C199.377 172.891 193.653 172.409 187.921 171.934C187.33 171.794 186.746 171.653 186.154 171.513C185.593 171.334 185.032 171.155 184.464 170.968C183.109 170.563 181.785 169.964 180.407 169.785C174.893 169.068 169.333 168.718 163.859 167.784C158.594 166.881 153.369 166.873 148.097 167.332C143.83 167.535 139.562 167.776 135.295 167.916C130.155 168.087 125.015 168.368 119.884 168.212C116.652 168.111 113.443 167.301 110.219 166.803C108.787 165.168 106.894 165.206 104.986 165.3C104.426 165.136 103.865 164.981 103.304 164.817C100.384 163.05 97.199 162.551 93.8738 162.793C91.3196 162.972 88.7809 163.283 86.2267 163.462C84.5368 163.579 82.59 164.436 81.6243 161.96C81.5231 161.703 80.5575 161.796 79.9968 161.734C80.2538 161.158 80.5108 160.574 80.7678 159.998C81.1727 160.029 81.5776 160.083 81.9826 160.091C82.6601 160.114 83.3376 160.122 84.0151 160.13C83.3454 159.857 82.6912 159.554 82.0137 159.336C81.6321 159.219 81.2038 159.258 80.7989 159.227C80.9546 158.736 81.0014 157.888 81.2661 157.817C84.4589 156.914 87.6907 156.393 91.0393 156.844C93.2976 157.148 95.6026 157.109 97.8765 157.335C100.002 157.545 102.136 157.802 104.231 158.215C110.126 159.39 115.982 160.761 121.893 161.827C123.98 162.201 126.207 162.201 128.317 161.921C141.003 160.216 153.735 159.196 166.483 160.441C172.409 161.018 178.265 162.606 184.067 164.062C192.609 166.203 201.261 167.348 210.014 166.904C213.207 166.74 216.314 165.222 219.491 164.436C221.407 163.961 223.369 163.455 225.316 163.439C228.026 163.423 230.736 163.937 233.462 164.07C235.868 164.186 237.893 164.918 239.575 166.748C240.073 167.293 240.953 167.542 241.709 167.753C242.386 167.947 243.141 167.854 243.842 167.971C245.665 168.282 247.456 170.182 247.378 171.739C247.269 173.95 245.532 174.028 243.99 174.34C243.289 174.192 242.526 174.192 241.911 173.88C240.136 172.977 239.372 173.148 239.458 175.469C239.52 177.041 238.189 177.664 236.764 177.61C235.634 177.563 234.513 177.291 233.384 177.127C232.426 176.987 231.367 176.481 230.83 177.851C228.338 179.05 225.815 178.599 223.292 177.976C221.033 177.773 218.775 177.571 216.517 177.368C215.909 177.174 215.302 176.987 214.694 176.792C213.191 175.609 213.347 172.72 211.229 172.502C209.228 172.3 207.141 173.032 205.093 173.359L205.108 173.374ZM228.112 172.494C228.135 172.245 228.159 172.004 228.174 171.755C227.964 171.809 227.761 171.871 227.551 171.926C227.411 171.941 227.185 171.91 227.146 171.988C226.227 173.616 227.723 174.48 228.291 175.632C228.314 175.679 228.525 175.624 228.649 175.617C228.47 174.573 228.291 173.538 228.112 172.494ZM237.067 174.277C235.159 173.763 233.252 173.211 231.328 172.767C231.04 172.697 230.339 173.148 230.355 173.281C230.425 173.771 230.658 174.597 230.939 174.643C233.041 174.978 235.159 175.157 237.278 175.391C237.433 175.095 237.589 174.807 237.745 174.511C237.519 174.433 237.293 174.355 237.067 174.285V174.277ZM228.089 167.503C229.498 167.2 230.908 166.896 232.325 166.6C230.775 166.624 229.233 166.639 227.684 166.662C223.587 165.199 220.519 167.659 217.334 169.543C215.746 170.493 216.345 172.237 216.649 173.53C216.797 174.137 218.129 174.674 218.993 174.83C220.535 175.11 222.131 175.157 223.704 175.103C224.14 175.087 224.942 174.324 224.911 173.966C224.67 171.101 226.788 169.52 228.089 167.496V167.503ZM95.4391 159.18C93.8583 159.18 92.2696 159.102 90.6966 159.211C89.9802 159.258 88.7186 159.608 88.6797 159.935C88.5084 161.383 89.7388 160.815 90.4396 160.831C91.7323 160.87 93.0328 160.644 94.3177 160.745C96.7318 160.932 99.1926 161.041 101.544 161.594C106.108 162.668 110.578 164.116 115.133 165.222C117.197 165.72 119.377 166.016 121.496 165.977C128.232 165.861 134.968 165.541 141.711 165.3C142.14 165.284 142.576 165.261 143.004 165.206C150.441 164.366 157.847 164.233 165.291 165.323C173.639 166.546 182.058 167.2 190.227 169.567C192.944 170.353 195.88 170.509 198.73 170.61C202.312 170.735 205.91 170.454 209.508 170.47C210.746 170.47 211.992 170.797 213.222 171.062C213.635 171.155 213.993 171.513 214.375 171.747C214.648 170.922 214.92 170.096 215.193 169.279C214.718 169.131 214.227 168.811 213.76 168.858C201.627 169.972 189.837 167.83 178.063 165.214C172.09 163.891 166.039 162.629 159.965 162.108C151.96 161.43 143.939 162.17 135.98 163.392C133.013 163.852 130.03 164.249 127.048 164.498C121.963 164.926 117.119 163.494 112.221 162.388C106.676 161.134 101.357 158.518 95.4469 159.18H95.4391ZM230.97 170.54C231.733 170.688 232.831 170.922 233.937 171.124C234.723 171.264 235.634 171.747 235.93 170.415C236.094 169.66 236.289 168.905 236.476 168.157C235.79 168.181 235.066 168.072 234.427 168.251C232.667 168.749 230.939 169.356 229.21 169.956C228.984 170.034 228.828 170.306 228.641 170.485C228.875 170.61 229.109 170.844 229.342 170.844C229.763 170.844 230.183 170.703 230.97 170.548V170.54ZM240.268 169.458C239.676 169.746 238.913 170.127 238.142 170.509C238.851 170.844 239.567 171.178 240.283 171.505C240.408 171.56 240.572 171.576 240.712 171.56C242.082 171.396 244.45 172.969 244.574 170.992C244.691 169.17 242.005 170.158 240.276 169.458H240.268Z" fill="#040303"/>
<path d="M78.9845 66.478C80.2382 66.5948 81.5153 66.6026 82.7302 66.8907C83.2363 67.0152 83.6101 67.7394 84.0462 68.191C83.6646 68.5335 83.322 69.0474 82.8781 69.172C82.2162 69.3589 81.4842 69.2654 80.7833 69.2888C77.5516 69.3822 77.4815 69.5068 78.7976 72.9716C79.1558 73.2909 79.514 73.6023 79.8722 73.9216L79.8177 73.8748C80.0981 74.9026 80.9469 76.3353 80.5653 76.8959C78.4316 80.0337 80.3239 82.1281 82.0838 84.2538C82.808 85.1258 83.9372 85.6475 84.7159 86.4962C85.2377 87.0646 85.7517 87.9132 85.7594 88.6451C85.7984 91.9776 86.3591 93.0677 89.1781 94.0877C90.3929 94.5237 91.6856 94.7183 92.9082 95.1232C93.2197 95.2244 93.6792 95.8473 93.6091 96.0108C93.4144 96.4313 92.9238 97.0697 92.6279 97.0308C90.8056 96.7739 88.96 96.4858 87.2079 95.933C85.7594 95.4814 84.9729 96.1354 84.3967 97.2177C83.47 98.9618 84.1786 100.636 84.895 102.248C84.9729 102.427 85.7283 102.536 85.7828 102.45C86.9431 100.394 87.8465 101.804 88.7498 102.668C91.195 105.012 93.8894 106.857 97.2458 107.62C98.8032 107.978 99.7143 108.936 100.446 110.657C101.443 112.992 103.359 114.916 104.885 117.018C104.363 118.295 103.896 119.587 103.312 120.833C102.853 121.822 101.942 122.694 101.794 123.706C101.498 125.754 100.524 127.257 98.8811 128.214C96.3424 129.678 93.6869 130.939 91.0782 132.279C87.9633 132.279 84.8483 132.271 81.7412 132.263C78.2836 130.807 75.3322 128.681 73.214 125.474C72.007 121.9 72.155 118.349 73.1751 114.736C74.5223 109.971 77.1311 106.327 81.7957 104.646C83.3765 104.077 83.6646 103.47 82.7691 102.224C80.8846 99.608 81.7801 97.2488 83.4155 95.0376C84.1085 94.0954 84.0462 93.5037 83.6724 92.3747C82.8158 89.7508 82.0215 87.2436 79.8566 85.336C79.0312 84.6119 78.3537 83.4674 78.0811 82.3929C77.1077 78.5465 76.7962 74.5678 75.6982 70.7214C74.9896 68.2532 76.8507 67.0542 79 66.4702L78.9845 66.478Z" fill="#040303"/>
<path d="M144.53 51.7467C143.253 53.1326 141.805 53.3272 140.364 52.1282C136.089 48.5699 131.152 45.6112 129.516 39.6159C129.298 38.8061 128.411 37.9185 127.624 37.5915C125.747 36.8051 124.821 36.0109 126.651 34.2123C126.658 34.2045 126.176 33.4648 125.997 33.4959C124.743 33.7062 123.512 34.0955 122.251 34.2278C122.08 34.2434 121.791 33.1767 121.566 32.6083C123.364 32.1879 125.148 31.6351 126.962 31.4093C127.686 31.3236 128.964 31.7596 129.174 32.2969C130.085 34.6405 131.035 33.8152 132.499 32.8341C135.24 31.0044 138.23 29.5717 140.979 27.7498C143.207 26.2782 145.348 24.7988 145.613 21.4897C145.932 17.4954 148.868 14.708 151.383 11.9984C157.418 5.4892 165.19 2.29688 173.741 0.965451C183.615 -0.576205 193.443 -0.389337 203.107 2.44482C209.041 4.18113 214.835 6.24445 219.149 11.1186C220.286 12.4033 221.664 12.7848 223.354 12.8549C224.841 12.9094 226.305 13.5401 227.777 13.9138C227.652 15.0584 227.286 15.7903 225.885 15.619C224.382 15.4399 222.84 15.6034 221.337 15.4399C220.589 15.362 219.686 15.0895 219.18 14.5678C212.187 7.44352 203.738 4.04098 193.925 3.14557C187.454 2.55382 181.053 2.38253 174.699 3.4648C164.077 5.27119 154.802 9.57692 148.658 19.2551C147.497 21.0848 147.739 23.265 146.898 24.9701C146.049 26.6831 146.283 26.8699 147.801 27.6408C150.947 29.2214 152.606 32.4682 153.618 35.5359C155.651 41.7025 156.102 48.1183 153.268 54.2849C152.886 55.1181 152.053 56.0135 151.243 56.286C150.083 56.6753 149.904 55.6397 150.036 54.6587C150.566 53.81 151.298 53.0314 151.586 52.1048C153.065 47.3786 152.995 42.559 151.819 37.8017C151.407 36.1354 150.496 34.5626 149.623 33.0599C148.813 31.6584 147.404 31.1523 145.885 31.6117C144.414 32.0633 144.71 33.5037 144.741 34.6016C144.834 37.6615 145.06 40.7215 145.239 43.7737C145.005 46.4365 144.764 49.0916 144.53 51.7544V51.7467Z" fill="#040303"/>
<path d="M106.707 33.1456C106.84 34.4692 106.988 35.715 105.368 36.4002C104.2 36.8985 103.187 37.7705 102.082 38.4324C95.5792 42.2709 91.1015 48.056 87.4648 54.573C86.6472 56.0368 86.2967 57.8276 86.0164 59.5172C85.4401 63.0599 85.518 63.0833 82.1772 63.3169C81.6088 63.3558 81.0325 63.2857 80.464 63.2702C80.6353 62.585 80.6587 61.3937 80.9936 61.3003C85.004 60.1401 83.6802 55.9745 85.2844 53.483C85.5336 53.0937 85.1754 51.9647 84.7471 51.5131C83.1818 49.8391 83.1429 47.7602 83.2052 45.7436C83.3142 42.0996 83.431 38.4246 83.9683 34.8352C84.5757 30.7786 86.8107 27.5707 90.0425 25.0791C92.9393 22.8445 94.9251 22.681 97.8142 24.9468C99.9635 26.6364 101.918 28.5907 103.935 30.4516C104.885 31.3236 105.788 32.2502 106.707 33.1534V33.1456Z" fill="#040303"/>
<path d="M91.0626 132.271C93.6714 130.924 96.3269 129.67 98.8655 128.207C100.516 127.257 101.49 125.746 101.778 123.698C101.926 122.686 102.837 121.814 103.297 120.825C103.881 119.58 104.348 118.279 104.87 117.01C105.461 116.995 106.061 116.979 106.653 116.963C106.957 118.022 107.26 119.081 107.572 120.14L107.704 120.358C108.062 121.222 108.841 122.157 108.701 122.928C107.689 128.534 110.702 131.804 114.853 134.498C115.071 134.638 115.219 134.903 115.398 135.105C115.071 135.51 114.565 136.312 114.456 136.257C112.587 135.362 110.126 136.203 108.631 134.358C107.494 132.948 106.1 132.676 104.465 132.808C101.685 133.034 98.9122 132.637 96.0854 133.509C94.6604 133.953 92.1528 134.988 91.0626 132.271Z" fill="#AFAFAF"/>
<path d="M321.63 39.3434C317.962 39.0553 314.902 38.0354 312.659 34.516C310.447 31.0512 306.935 29.0969 302.909 27.8667C297.606 26.2549 292.28 25.8033 286.828 26.0681C286.12 26.0992 285.388 26.107 284.695 25.9668C283.721 25.7722 283.418 24.4563 284.321 24.0437C285.434 23.522 286.237 22.9925 286.431 21.7234C288.635 21.7935 289.936 24.1682 292.443 23.8802C294.655 23.6232 296.968 24.1994 299.234 24.4018L300.098 24.4875C302.901 25.562 305.806 26.4262 308.462 27.7966C310.323 28.7543 312.184 30.148 313.422 31.8298C315.229 34.2669 317.215 36.0655 320.143 36.8363C320.82 37.0154 321.311 37.9263 321.887 38.5025C321.801 38.7828 321.708 39.0631 321.622 39.3434H321.63Z" fill="#040303"/>
<path d="M269.478 20.0338C269.229 20.5399 269.112 21.303 268.715 21.5132C266.815 22.4943 264.868 23.3819 262.882 24.1527C262.345 24.3629 261.387 24.2695 261.006 23.8958C254.729 17.8927 247.502 19.4732 240.416 21.4198C236.779 22.4164 233.345 21.521 229.825 21.4587C229.498 21.4587 229.085 20.758 228.914 20.2986C228.859 20.1662 229.459 19.5745 229.81 19.5122C231.071 19.2942 232.356 19.2085 233.633 19.0762C235.977 19.9949 238.204 19.8158 240.587 18.8971C244.481 17.4021 248.632 16.9194 252.735 17.5656C255.188 17.9472 257.743 18.7725 259.853 20.0806C261.527 21.1239 262.843 21.2018 264.572 20.758C266.169 20.3453 267.843 20.2674 269.486 20.0338H269.478Z" fill="#040303"/>
<path d="M148.097 167.332C153.369 166.865 158.587 166.88 163.859 167.784C169.325 168.718 174.893 169.068 180.407 169.785C181.785 169.964 183.117 170.563 184.464 170.968C184.199 171.435 183.965 172.284 183.677 172.307C181.824 172.424 179.955 172.463 178.102 172.331C176.435 172.206 174.784 171.622 173.125 171.614C166.187 171.56 159.342 170.906 152.621 169.029C151.547 168.734 150.309 169.084 149.203 168.843C148.751 168.741 148.463 167.862 148.097 167.34V167.332Z" fill="#AFAFAF"/>
<path d="M79.9968 161.742C80.5575 161.812 81.5231 161.718 81.6243 161.968C82.59 164.443 84.5368 163.587 86.2267 163.47C88.7809 163.291 91.3196 162.98 93.8738 162.801C97.199 162.567 100.384 163.065 103.304 164.825C103.312 166.336 102.269 166.234 101.241 166.289C95.7272 166.554 90.2683 166.063 84.8171 165.3C84.1942 165.214 83.5556 165.253 82.9248 165.222C80.9157 165.113 80.1603 164.21 79.989 161.742H79.9968Z" fill="#AFAFAF"/>
<path d="M230.837 177.875C231.383 176.504 232.442 177.01 233.392 177.15C234.521 177.314 235.634 177.586 236.771 177.633C238.196 177.688 239.528 177.065 239.466 175.492C239.38 173.172 240.143 173 241.919 173.904C242.534 174.215 243.305 174.215 243.998 174.363C245.026 176.45 243.71 176.964 242.168 177.89C239.03 179.774 234.871 180.678 231.951 179.408C231.453 179.19 231.196 178.404 230.83 177.882L230.837 177.875Z" fill="#AFAFAF"/>
<path d="M73.1985 125.474C75.3166 128.682 78.2602 130.807 81.7256 132.263C81.3206 132.73 80.9624 133.54 80.4952 133.61C75.4957 134.389 72.8558 131.921 73.0349 126.751C73.0505 126.322 73.144 125.902 73.1985 125.474Z" fill="#AFAFAF"/>
<path d="M205.108 173.374C207.156 173.055 209.251 172.315 211.245 172.517C213.363 172.735 213.207 175.624 214.71 176.808C211.307 177.267 208.488 175.141 205.318 174.565C205.186 174.542 205.178 173.787 205.108 173.366V173.374Z" fill="#AFAFAF"/>
<path d="M286.408 21.7077C282.522 21.6921 278.893 22.8678 275.249 24.0513C274.758 24.207 274.112 23.8722 273.535 23.7632C273.995 23.2727 274.454 22.7977 274.898 22.2994C274.992 22.1982 275.031 22.0425 275.093 21.9101C275.778 21.6765 276.456 21.4351 277.141 21.2016C279.812 20.82 282.475 20.384 285.162 20.0804C286.213 19.9636 286.719 20.5865 286.408 21.7154V21.7077Z" fill="#040303"/>
<path d="M112.937 31.4638C112.501 32.7018 112.595 34.4693 110.484 34.041C110.391 33.7997 110.29 33.5661 110.188 33.3325L110.103 31.5417C110.422 30.7241 110.609 29.8132 111.107 29.1358C111.45 28.6764 112.236 28.5518 112.82 28.2793C112.883 28.91 112.968 29.5407 113 30.1791C113.023 30.6074 112.961 31.0434 112.937 31.4716V31.4638Z" fill="#040303"/>
<path d="M201.059 175.772C202.258 176.052 203.465 176.325 204.664 176.605C205.069 176.699 205.474 176.776 205.887 176.862C205.482 177.15 205.077 177.68 204.664 177.695C202.492 177.757 200.311 177.719 198.146 177.633C197.928 177.625 197.663 177.057 197.57 176.699C197.531 176.551 197.85 176.122 198.029 176.107C199.018 176.052 200.015 176.076 201.012 176.076L201.059 175.772Z" fill="#AFAFAF"/>
<path d="M118.622 32.406C117.236 33.2261 116.384 32.9173 116.068 31.4794C116.776 30.7709 117.399 29.93 118.209 29.3772C119.471 28.5129 120.382 28.7854 120.421 30.5451C119.821 31.168 119.214 31.7909 118.614 32.406H118.622Z" fill="#040303"/>
<path d="M216.524 177.392C218.783 177.594 221.041 177.796 223.299 177.999C223.05 178.474 222.824 179.33 222.544 179.354C220.831 179.486 219.086 179.548 217.389 179.354C217.031 179.315 216.812 178.077 216.524 177.399V177.392Z" fill="#AFAFAF"/>
<path d="M104.986 165.308C106.894 165.222 108.787 165.175 110.219 166.81C109.924 168.57 108.483 168.22 107.595 167.924C106.435 167.542 104.683 167.363 104.986 165.3V165.308Z" fill="#AFAFAF"/>
<path d="M277.141 21.2015C276.456 21.4351 275.778 21.6765 275.093 21.9101C273.683 21.1548 272.616 19.582 270.716 20.0492C272.103 18.5309 273.629 19.0681 275.108 19.8C275.84 20.1582 276.463 20.7266 277.141 21.2015Z" fill="#AFAFAF"/>
<path d="M35.827 155.552C36.084 154.82 36.341 154.08 36.598 153.348C37.2054 153.815 37.8206 154.275 38.428 154.742C38.1944 155.334 37.9608 155.925 37.7271 156.517C37.0964 156.198 36.4656 155.879 35.827 155.559V155.552Z" fill="#AFAFAF"/>
<path d="M190.437 175.983C191.854 175.983 193.271 175.975 194.689 176.014C194.914 176.014 195.14 176.286 195.366 176.434C195.133 176.574 194.86 176.87 194.665 176.831C193.264 176.535 191.574 177.664 190.445 175.983H190.437Z" fill="#AFAFAF"/>
<path d="M80.7989 159.242C81.2038 159.273 81.6321 159.234 82.0137 159.351C82.699 159.561 83.3531 159.873 84.0151 160.145C83.3376 160.13 82.6601 160.13 81.9826 160.106C81.5776 160.091 81.1727 160.044 80.7678 160.013C80.7444 159.756 80.76 159.507 80.7989 159.25V159.242Z" fill="#AFAFAF"/>
<path d="M186.146 171.513C186.738 171.653 187.322 171.793 187.914 171.934C187.548 172.362 187.174 172.79 186.808 173.211C186.59 172.642 186.364 172.074 186.146 171.505V171.513Z" fill="#AFAFAF"/>
<path d="M52.1259 156.494C51.3706 156.86 51.0045 157.179 50.6541 157.156C50.3426 157.14 50.0545 156.751 49.7586 156.517C49.9766 156.237 50.1713 155.785 50.4283 155.731C50.7242 155.676 51.0824 155.995 52.1259 156.486V156.494Z" fill="#040303"/>
<path d="M118.622 32.4058C119.222 31.7829 119.829 31.16 120.429 30.5449C120.46 31.1678 120.491 31.7829 120.514 32.4058C119.884 32.4058 119.253 32.4058 118.622 32.4058Z" fill="#AFAFAF"/>
<path d="M190.445 175.975C190.164 175.975 189.868 176.014 189.603 175.944C189.37 175.873 189.175 175.679 188.957 175.531C189.183 175.406 189.51 175.11 189.627 175.181C189.946 175.367 190.172 175.702 190.437 175.982L190.445 175.975Z" fill="#AFAFAF"/>
<path d="M78.4393 153.519C77.9487 153.8 77.6294 154.127 77.3257 154.103C77.022 154.08 76.7339 153.714 76.4458 153.496C76.7417 153.278 77.0298 152.912 77.3335 152.897C77.6295 152.881 77.9487 153.224 78.4393 153.512V153.519Z" fill="#E59112"/>
<path d="M56.3934 155.879C56.1909 156.229 56.043 156.587 55.9807 156.571C55.638 156.486 55.311 156.315 54.9761 156.167C55.0696 156.073 55.1552 155.902 55.2564 155.894C55.5913 155.855 55.9261 155.879 56.3934 155.879Z" fill="#AFAFAF"/>
<path d="M300.098 24.4952L299.234 24.4095C299.389 24.1993 299.553 23.9968 299.709 23.7866C299.841 24.0202 299.966 24.2538 300.098 24.4952Z" fill="#AFAFAF"/>
<path d="M208.472 112.323C204.843 113.6 201.261 115.04 197.329 115.095C196.815 115.095 195.888 115.71 195.865 116.092C195.748 117.789 195.452 119.525 193.801 120.086C191.893 120.74 189.853 120.53 188.054 119.307C187.703 119.066 187.283 118.933 186.901 118.754C186.037 117.812 185.095 116.925 184.347 115.889C183.997 115.406 183.701 114.394 183.95 114.059C184.666 113.094 185.274 113.872 186.021 114.402C187.742 115.617 189.58 116.691 191.457 117.633C191.948 117.875 193.186 117.618 193.357 117.244C193.661 116.574 193.614 115.57 193.349 114.846C192.983 113.857 191.62 112.44 191.831 112.183C192.882 110.906 194.089 112.089 195.296 112.378C199.088 113.281 202.663 112.214 206.097 110.665C206.518 110.47 206.751 109.528 206.829 108.897C207.094 106.608 207.032 104.257 207.491 102.014C208.355 97.8252 211.322 95.1157 215.356 94.8042C219.242 94.5006 223.058 95.0845 226.718 96.5094C226.85 96.5639 227.068 96.5094 227.131 96.6028C229.615 100.286 233.664 100.138 237.324 100.971C238.15 101.158 238.913 101.672 239.746 101.835C242.004 102.287 241.6 103.626 240.883 105.105C238.726 106.452 236.546 107.753 234.427 109.146C227.006 114.028 218.946 114.27 210.622 112.619C210.061 111.342 209.298 111.63 208.48 112.323H208.472Z" fill="#040303"/>
<path d="M269.136 48.3987C268.762 49.2629 268.575 50.2985 267.991 50.9603C263.474 56.107 262.524 61.9855 264.424 68.448C264.923 70.1376 265.047 71.2432 263.163 72.38C260.842 73.7737 261.208 76.4599 263.661 77.8537C264.471 78.313 265.756 78.1262 265.374 79.6834C263.544 80.1272 261.893 80.2051 260.663 78.2663C260.406 77.8614 259.261 78.0405 258.529 77.9471C258.187 77.8926 257.844 77.8381 257.501 77.7836C257.229 78.5466 256.948 79.2941 256.699 80.0649C255.897 82.4864 255.663 85.3673 254.184 87.2126C252.253 89.6107 252.105 91.8453 252.681 94.5082C248.709 92.515 248.195 90.802 250.929 87.7109C253.826 84.4252 254.402 80.5399 254.332 76.3821C254.293 73.9606 254.324 73.9606 256.512 75.0818C258.303 75.9928 258.778 75.7825 259.51 73.7348C259.697 73.1975 259.713 72.4423 260.087 72.1542C262.61 70.1687 261.87 67.864 261.403 65.1389C260.289 58.6686 262.547 53.1404 267.298 48.7335C267.687 48.3753 268.52 48.5077 269.151 48.4143L269.136 48.3987Z" fill="#040303"/>
<path d="M99.8701 73.8436C98.8889 74.5054 97.0355 75.2295 97.0744 75.8213C97.1912 77.5887 97.8765 79.3951 98.6786 81.0146C99.2315 82.1203 100.407 82.8833 101.194 83.8877C101.482 84.2615 101.451 84.8921 101.568 85.406C100.945 85.4605 100.08 85.8031 99.7455 85.5072C97.3314 83.4361 95.2989 81.038 94.7616 77.7055C94.598 76.7089 94.5513 75.6889 94.4579 74.6845C94.746 73.8825 94.9407 73.0338 95.3534 72.302C95.8206 71.4844 97.0978 70.3165 96.9498 70.1063C96.2412 69.1174 95.1977 68.3544 94.2009 67.6147C93.6091 67.1787 92.8848 66.9295 92.2229 66.5947C92.9393 66.3222 93.6324 65.8706 94.3644 65.8005C97.7441 65.4891 97.713 65.5436 98.9745 68.9773C99.1614 69.4834 99.9479 69.7247 100.361 70.1841C100.773 70.6435 101.054 71.2119 101.396 71.7336C100.851 71.8036 100.298 71.8348 99.761 71.9671C99.3016 72.0762 98.8655 72.2942 98.4216 72.4655C98.8343 72.8003 99.2471 73.1351 99.6442 73.4777C99.7455 73.5633 99.7922 73.7112 99.8701 73.828V73.8436Z" fill="#040303"/>
<path d="M312.114 84.4015C311.421 84.3081 310.276 84.4483 310.105 84.0901C308.111 79.9712 304.677 76.2027 306.694 70.9704C306.99 70.1996 306.896 69.2731 307.075 68.44C307.667 65.6759 307.449 64.9751 304.957 64.1264C303.127 63.5035 301.406 63.0597 301.905 60.5137C302.045 60.5214 302.216 60.4825 302.325 60.5526C304.973 62.2032 307.628 63.6982 310.946 63.3011C312.106 63.1609 312.348 64.0252 311.725 64.9985C310.728 66.5479 309.49 67.9806 308.773 69.6546C308.181 71.0327 307.652 72.8391 308.041 74.1706C308.851 76.9424 310.26 79.543 311.499 82.1825C311.631 82.4706 312.231 82.5329 312.612 82.6964L312.106 84.4093L312.114 84.4015Z" fill="#AFAFAF"/>
<path d="M301.032 59.6419C299.802 59.6575 298.727 60.0779 298.315 57.9757C297.076 51.7545 296.921 51.8791 290.815 51.7467C288.004 51.6845 285.201 51.2173 282.405 50.8747C280.894 50.6878 280.092 49.8391 280.349 48.1885C284.383 50.61 288.837 50.026 293.198 50.0572C294.343 50.0572 295.488 50.0571 296.633 50.0416C298.4 50.0104 299.397 50.8825 299.21 52.6889C298.938 55.2816 299.701 57.5241 301.04 59.6497L301.032 59.6419Z" fill="#AFAFAF"/>
<path d="M147.233 91.6662C146.649 91.0822 146.072 90.4983 145.488 89.9143C146.103 89.4549 146.672 88.723 147.349 88.5907C151.523 87.7965 154.475 85.6787 155.511 81.2795C156.757 80.3919 157.823 80.3997 157.761 82.2294C157.675 84.9312 156.087 87.0101 153.976 88.287C152.115 89.4082 150.791 90.7942 149.81 92.655C148.946 92.328 148.089 91.9932 147.225 91.6662H147.233Z" fill="#040303"/>
<path d="M279.329 46.7791C277.156 45.8759 275.179 46.709 273.146 47.3942C271.846 47.838 270.475 48.0638 269.136 48.3908C269.058 48.1339 268.847 47.7056 268.933 47.6356C272.032 44.9727 275.443 43.1507 279.664 43.9527C280.194 44.0539 280.598 44.817 281.066 45.2764C280.489 45.7747 279.913 46.2808 279.337 46.7791H279.329Z" fill="#040303"/>
<path d="M145.239 43.7738C146.835 43.7193 147.614 44.4667 147.24 46.1018C146.578 49.0061 147.24 51.7468 148.097 54.4719C146.127 54.6354 145.846 52.4865 144.523 51.7546C144.756 49.0917 144.998 46.4366 145.231 43.7738H145.239Z" fill="#AFAFAF"/>
<path d="M120.693 65.7693C120.904 65.7693 121.527 65.6292 122.041 65.8005C122.757 66.0496 123.855 66.4234 123.972 66.9372C124.174 67.8249 123.847 68.8994 123.528 69.8181C123.458 70.0283 122.118 70.0984 122.072 69.9738C121.207 67.5601 119.276 67.4978 117.244 67.4901C116.987 67.4901 116.737 66.9684 116.488 66.6881C116.769 66.4311 117.026 65.9951 117.337 65.9484C118.326 65.816 119.338 65.8238 120.701 65.7615L120.693 65.7693Z" fill="#040303"/>
<path d="M180.804 120.553C181.193 122.227 180.111 122.678 178.912 122.515C177.541 122.328 176.217 121.752 174.878 121.347C174.496 119.961 172.238 119.26 173.484 117.423C173.562 117.314 175.415 118.583 176.513 119.042C177.907 119.634 179.371 120.054 180.804 120.545V120.553Z" fill="#040303"/>
<path d="M147.233 91.6665C148.097 91.9935 148.954 92.3283 149.818 92.6553C150.005 93.1848 150.355 93.7142 150.34 94.2359C150.324 94.7654 150.005 95.6997 149.725 95.7386C148.471 95.9177 147.186 95.8398 145.909 95.8476L146.158 95.653C146.516 94.3215 146.874 92.9901 147.233 91.6587V91.6665Z" fill="#AFAFAF"/>
<path d="M248.803 99.5691C248.001 99.8728 247.386 100.317 247.144 100.161C246.101 99.4757 244.995 98.7438 244.255 97.7705C243.85 97.2333 244.115 96.1588 244.076 95.3257C244.699 95.7228 245.392 96.0498 245.922 96.5481C246.833 97.389 247.635 98.3389 248.795 99.5691H248.803Z" fill="#040303"/>
<path d="M146.15 95.6528L145.901 95.8474C146.049 96.7117 146.197 97.5759 146.345 98.4324C146.065 98.448 145.753 98.5648 145.512 98.4713C143.993 97.8718 141.641 97.1555 142.21 95.4581C142.763 93.7919 144.78 95.3257 146.15 95.645V95.6528Z" fill="#040303"/>
<path d="M145.512 104.521C145.924 102.808 144.748 100.846 146.29 99.3047C147.56 100.839 147.272 102.676 147.256 104.467C146.672 104.49 146.096 104.506 145.512 104.529V104.521Z" fill="#AFAFAF"/>
<path d="M99.8701 73.844C99.8 73.7272 99.7455 73.5793 99.6442 73.4936C99.2471 73.1432 98.8266 72.8162 98.4216 72.4814C98.8655 72.3101 99.3016 72.0921 99.7611 71.9831C100.291 71.8585 100.851 71.8274 101.396 71.7495C101.42 72.4503 101.443 73.1432 101.474 73.844C100.937 73.844 100.407 73.844 99.8701 73.844Z" fill="#AFAFAF"/>
<path d="M93.7492 74.669C92.8692 74.669 91.9971 74.669 91.1171 74.6768C91.9893 73.2987 92.8692 73.2208 93.7492 74.669Z" fill="#AFAFAF"/>
<path d="M118.715 77.3787H118.318L117.921 77.3398L118.482 76.7559C118.56 76.9661 118.638 77.1685 118.723 77.3787H118.715Z" fill="#AFAFAF"/>
<path d="M280.31 48.1728C280.007 47.9003 279.711 47.6278 279.407 47.363C279.711 47.6356 280.007 47.9081 280.31 48.1728Z" fill="#AFAFAF"/>
<path d="M110.188 33.3325C110.297 33.5661 110.391 33.7997 110.484 34.0411C110.18 33.9321 109.869 33.823 109.565 33.7218C109.768 33.5972 109.978 33.4649 110.18 33.3403L110.188 33.3325Z" fill="#AFAFAF"/>
<path d="M134.399 108.5C135.17 108.126 135.941 107.745 136.712 107.371C136.65 109.255 135.458 108.749 134.399 108.5Z" fill="#E59112"/>
<path d="M160.923 129.974C160.705 130.184 160.44 130.277 160.136 130.262C160.074 130.091 160.012 129.919 159.942 129.74C160.269 129.818 160.596 129.896 160.923 129.974Z" fill="#E59112"/>
<path d="M107.704 120.358L107.572 120.14C107.673 120.07 107.766 119.992 107.868 119.922C107.813 120.07 107.759 120.21 107.712 120.358H107.704Z" fill="#E59112"/>
<path d="M268.193 83.2885C268.754 83.6778 269.712 83.9815 269.805 84.4564C270.607 88.622 273.964 90.0157 277.172 91.0591C283.277 93.0523 289.313 92.9433 294.834 88.9023C297.1 87.2439 297.17 87.3373 297.956 90.0547C298.626 92.3671 299.296 92.663 301.142 91.0435C302.31 90.0157 303.143 88.5986 304.186 87.4074C304.911 86.582 305.393 87.1115 305.759 87.8434C305.565 90.6153 303.929 92.3671 301.679 93.5973C300.082 94.4694 298.081 94.9443 296.874 93.5039C295.278 91.5963 294.133 92.445 292.498 93.1769C285.216 96.4237 278.262 95.1312 271.674 91.0746C270.498 90.3505 269.517 89.1125 268.754 87.9057C268.014 86.7378 267.453 85.7333 265.849 85.8891C265.491 85.928 265.063 85.2272 264.666 84.8613C265.133 84.4097 265.53 83.7868 266.091 83.5454C266.714 83.2729 267.485 83.343 268.186 83.2651L268.193 83.2885Z" fill="#040303"/>
<path d="M208.472 112.323C209.29 111.63 210.053 111.342 210.614 112.619C209.897 112.517 209.189 112.424 208.472 112.323Z" fill="#E59112"/>
<path d="M95.4313 159.188C101.342 158.526 106.653 161.15 112.205 162.396C117.103 163.501 121.947 164.934 127.032 164.506C130.023 164.257 133.005 163.852 135.964 163.4C143.923 162.178 151.944 161.43 159.949 162.115C166.023 162.629 172.074 163.898 178.047 165.222C189.822 167.83 201.619 169.972 213.744 168.866C214.204 168.827 214.694 169.139 215.177 169.286C214.905 170.112 214.632 170.937 214.359 171.755C213.978 171.521 213.62 171.163 213.207 171.07C211.984 170.805 210.738 170.478 209.492 170.478C205.902 170.462 202.305 170.743 198.715 170.618C195.865 170.517 192.929 170.361 190.211 169.575C182.034 167.208 173.616 166.554 165.276 165.331C157.831 164.241 150.418 164.373 142.989 165.214C142.56 165.261 142.132 165.292 141.696 165.308C134.96 165.549 128.224 165.868 121.48 165.985C119.362 166.024 117.189 165.736 115.118 165.23C110.562 164.124 106.092 162.676 101.529 161.602C99.177 161.049 96.724 160.94 94.3021 160.753C93.0172 160.652 91.7167 160.877 90.424 160.839C89.7232 160.815 88.4928 161.391 88.6641 159.943C88.703 159.616 89.9646 159.266 90.681 159.219C92.2541 159.11 93.8427 159.188 95.4235 159.188H95.4313Z" fill="#AFAFAF"/>
<path d="M228.081 167.511C226.78 169.536 224.662 171.116 224.903 173.981C224.935 174.34 224.133 175.103 223.696 175.118C222.131 175.173 220.527 175.118 218.985 174.846C218.121 174.69 216.781 174.153 216.641 173.545C216.337 172.253 215.73 170.501 217.326 169.559C220.504 167.667 223.58 165.214 227.676 166.678C227.808 166.958 227.948 167.239 228.081 167.519V167.511Z" fill="#AFAFAF"/>
<path d="M230.962 170.548C230.168 170.703 229.755 170.844 229.334 170.844C229.101 170.844 228.867 170.61 228.634 170.485C228.821 170.306 228.976 170.034 229.202 169.956C230.931 169.356 232.66 168.749 234.42 168.251C235.066 168.072 235.782 168.181 236.468 168.157C236.289 168.913 236.094 169.66 235.923 170.415C235.627 171.747 234.716 171.272 233.929 171.124C232.823 170.921 231.725 170.696 230.962 170.54V170.548Z" fill="#AFAFAF"/>
<path d="M228.112 172.494C228.291 173.538 228.47 174.573 228.649 175.616C228.525 175.624 228.314 175.679 228.291 175.632C227.723 174.472 226.227 173.615 227.146 171.988C227.185 171.91 227.411 171.941 227.551 171.926C227.684 172.167 227.87 172.362 228.112 172.494Z" fill="#E59112"/>
<path d="M228.081 167.511C227.948 167.231 227.808 166.951 227.676 166.67C229.225 166.647 230.767 166.631 232.317 166.608C230.908 166.912 229.498 167.215 228.081 167.511Z" fill="#E59112"/>
<path d="M228.112 172.494C227.878 172.354 227.691 172.167 227.551 171.926L228.174 171.754C228.151 172.004 228.127 172.245 228.112 172.494Z" fill="#AFAFAF"/>
<path d="M237.27 175.391C237.2 175.025 237.13 174.651 237.06 174.285C237.285 174.363 237.511 174.441 237.737 174.511C237.581 174.807 237.426 175.095 237.27 175.391Z" fill="#AFAFAF"/>
</g>
<path d="M80.392 227.056C79.4773 227.392 78.6093 227.653 77.788 227.84C76.9853 228.008 76.2107 228.092 75.464 228.092C72.72 228.092 70.62 227.439 69.164 226.132C67.7267 224.825 67.008 222.921 67.008 220.42V214.4H72.468V219.804C72.468 221.073 72.776 222.025 73.392 222.66C74.0267 223.276 74.9507 223.584 76.164 223.584C76.948 223.584 77.6853 223.509 78.376 223.36C79.0853 223.192 79.7107 222.94 80.252 222.604L80.392 227.056ZM79.636 234V214.4H85.096V234H79.636ZM92.3714 234V221.876L93.5194 223.052H87.4714V218.824H102.535V223.052H96.4874L97.6634 221.876V234H92.3714ZM111.471 234.252C109.81 234.252 108.335 233.916 107.047 233.244C105.759 232.572 104.742 231.648 103.995 230.472C103.267 229.277 102.903 227.915 102.903 226.384C102.903 224.853 103.267 223.5 103.995 222.324C104.742 221.148 105.759 220.233 107.047 219.58C108.335 218.908 109.81 218.572 111.471 218.572C113.132 218.572 114.607 218.908 115.895 219.58C117.202 220.233 118.219 221.148 118.947 222.324C119.675 223.5 120.039 224.853 120.039 226.384C120.039 227.915 119.675 229.277 118.947 230.472C118.219 231.648 117.202 232.572 115.895 233.244C114.607 233.916 113.132 234.252 111.471 234.252ZM111.471 230.024C112.087 230.024 112.628 229.884 113.095 229.604C113.58 229.324 113.963 228.913 114.243 228.372C114.523 227.812 114.663 227.149 114.663 226.384C114.663 225.619 114.523 224.975 114.243 224.452C113.963 223.911 113.58 223.5 113.095 223.22C112.628 222.94 112.087 222.8 111.471 222.8C110.874 222.8 110.332 222.94 109.847 223.22C109.38 223.5 108.998 223.911 108.699 224.452C108.419 224.975 108.279 225.619 108.279 226.384C108.279 227.149 108.419 227.812 108.699 228.372C108.998 228.913 109.38 229.324 109.847 229.604C110.332 229.884 110.874 230.024 111.471 230.024ZM122.36 228.064V223.976H130.536V228.064H122.36ZM136.887 234V221.876L138.035 223.052H131.987V218.824H147.051V223.052H141.003L142.179 221.876V234H136.887ZM155.987 234.252C154.325 234.252 152.851 233.916 151.563 233.244C150.275 232.572 149.257 231.648 148.511 230.472C147.783 229.277 147.419 227.915 147.419 226.384C147.419 224.853 147.783 223.5 148.511 222.324C149.257 221.148 150.275 220.233 151.563 219.58C152.851 218.908 154.325 218.572 155.987 218.572C157.648 218.572 159.123 218.908 160.411 219.58C161.717 220.233 162.735 221.148 163.463 222.324C164.191 223.5 164.555 224.853 164.555 226.384C164.555 227.915 164.191 229.277 163.463 230.472C162.735 231.648 161.717 232.572 160.411 233.244C159.123 233.916 157.648 234.252 155.987 234.252ZM155.987 230.024C156.603 230.024 157.144 229.884 157.611 229.604C158.096 229.324 158.479 228.913 158.759 228.372C159.039 227.812 159.179 227.149 159.179 226.384C159.179 225.619 159.039 224.975 158.759 224.452C158.479 223.911 158.096 223.5 157.611 223.22C157.144 222.94 156.603 222.8 155.987 222.8C155.389 222.8 154.848 222.94 154.363 223.22C153.896 223.5 153.513 223.911 153.215 224.452C152.935 224.975 152.795 225.619 152.795 226.384C152.795 227.149 152.935 227.812 153.215 228.372C153.513 228.913 153.896 229.324 154.363 229.604C154.848 229.884 155.389 230.024 155.987 230.024ZM175.198 234V218.824H190.878V234H185.586V221.904L186.762 223.052H179.342L180.49 221.904V234H175.198ZM201.979 234.252C200.318 234.252 198.843 233.916 197.555 233.244C196.267 232.572 195.25 231.648 194.503 230.472C193.775 229.277 193.411 227.915 193.411 226.384C193.411 224.853 193.775 223.5 194.503 222.324C195.25 221.148 196.267 220.233 197.555 219.58C198.843 218.908 200.318 218.572 201.979 218.572C203.64 218.572 205.115 218.908 206.403 219.58C207.71 220.233 208.727 221.148 209.455 222.324C210.183 223.5 210.547 224.853 210.547 226.384C210.547 227.915 210.183 229.277 209.455 230.472C208.727 231.648 207.71 232.572 206.403 233.244C205.115 233.916 203.64 234.252 201.979 234.252ZM201.979 230.024C202.595 230.024 203.136 229.884 203.603 229.604C204.088 229.324 204.471 228.913 204.751 228.372C205.031 227.812 205.171 227.149 205.171 226.384C205.171 225.619 205.031 224.975 204.751 224.452C204.471 223.911 204.088 223.5 203.603 223.22C203.136 222.94 202.595 222.8 201.979 222.8C201.382 222.8 200.84 222.94 200.355 223.22C199.888 223.5 199.506 223.911 199.207 224.452C198.927 224.975 198.787 225.619 198.787 226.384C198.787 227.149 198.927 227.812 199.207 228.372C199.506 228.913 199.888 229.324 200.355 229.604C200.84 229.884 201.382 230.024 201.979 230.024ZM223.598 229.744L222.45 230.948V218.824H227.742V230.948L226.538 229.744H232.978L231.83 230.948V218.824H237.094V234H213.042V218.824H218.334V230.948L217.186 229.744H223.598ZM239.147 234L239.371 229.66C239.501 229.679 239.623 229.697 239.735 229.716C239.847 229.716 239.949 229.716 240.043 229.716C240.509 229.716 240.873 229.604 241.135 229.38C241.415 229.137 241.62 228.811 241.751 228.4C241.9 227.989 242.003 227.513 242.059 226.972C242.133 226.412 242.18 225.805 242.199 225.152L242.423 218.824H256.143V234H250.823V221.848L251.999 223.052H245.923L247.043 221.792L246.875 225.376C246.819 226.739 246.697 227.98 246.511 229.1C246.343 230.201 246.072 231.144 245.699 231.928C245.325 232.712 244.812 233.319 244.159 233.748C243.524 234.159 242.712 234.364 241.723 234.364C241.368 234.364 240.967 234.327 240.519 234.252C240.089 234.196 239.632 234.112 239.147 234ZM267.194 234.252C265.532 234.252 264.058 233.916 262.77 233.244C261.482 232.572 260.464 231.648 259.718 230.472C258.99 229.277 258.626 227.915 258.626 226.384C258.626 224.853 258.99 223.5 259.718 222.324C260.464 221.148 261.482 220.233 262.77 219.58C264.058 218.908 265.532 218.572 267.194 218.572C268.855 218.572 270.33 218.908 271.618 219.58C272.924 220.233 273.942 221.148 274.67 222.324C275.398 223.5 275.762 224.853 275.762 226.384C275.762 227.915 275.398 229.277 274.67 230.472C273.942 231.648 272.924 232.572 271.618 233.244C270.33 233.916 268.855 234.252 267.194 234.252ZM267.194 230.024C267.81 230.024 268.351 229.884 268.818 229.604C269.303 229.324 269.686 228.913 269.966 228.372C270.246 227.812 270.386 227.149 270.386 226.384C270.386 225.619 270.246 224.975 269.966 224.452C269.686 223.911 269.303 223.5 268.818 223.22C268.351 222.94 267.81 222.8 267.194 222.8C266.596 222.8 266.055 222.94 265.57 223.22C265.103 223.5 264.72 223.911 264.422 224.452C264.142 224.975 264.002 225.619 264.002 226.384C264.002 227.149 264.142 227.812 264.422 228.372C264.72 228.913 265.103 229.324 265.57 229.604C266.055 229.884 266.596 230.024 267.194 230.024ZM67.792 258V242.824H73.084V248.452H78.544V242.824H83.864V258H78.544V252.68H73.084V258H67.792ZM95.2642 258.252C93.4722 258.252 91.9042 257.916 90.5602 257.244C89.2348 256.553 88.1988 255.62 87.4522 254.444C86.7242 253.249 86.3602 251.896 86.3602 250.384C86.3602 248.872 86.7148 247.528 87.4242 246.352C88.1522 245.157 89.1508 244.233 90.4202 243.58C91.6895 242.908 93.1175 242.572 94.7042 242.572C96.1975 242.572 97.5602 242.88 98.7922 243.496C100.024 244.093 101.004 244.98 101.732 246.156C102.46 247.332 102.824 248.76 102.824 250.44C102.824 250.627 102.815 250.841 102.796 251.084C102.777 251.327 102.759 251.551 102.74 251.756H90.7282V248.956H99.9122L97.8962 249.74C97.9148 249.049 97.7842 248.452 97.5042 247.948C97.2428 247.444 96.8695 247.052 96.3842 246.772C95.9175 246.492 95.3668 246.352 94.7322 246.352C94.0975 246.352 93.5375 246.492 93.0522 246.772C92.5855 247.052 92.2215 247.453 91.9602 247.976C91.6988 248.48 91.5682 249.077 91.5682 249.768V250.58C91.5682 251.327 91.7175 251.971 92.0162 252.512C92.3335 253.053 92.7815 253.473 93.3602 253.772C93.9388 254.052 94.6295 254.192 95.4322 254.192C96.1788 254.192 96.8135 254.089 97.3362 253.884C97.8775 253.66 98.4095 253.324 98.9322 252.876L101.732 255.788C101.004 256.591 100.108 257.207 99.0442 257.636C97.9802 258.047 96.7202 258.252 95.2642 258.252ZM117.172 258V245.876L118.32 247.052H112.272V242.824H127.336V247.052H121.288L122.464 245.876V258H117.172ZM138.385 258V255.172L138.021 254.472V249.264C138.021 248.424 137.76 247.78 137.237 247.332C136.733 246.865 135.921 246.632 134.801 246.632C134.073 246.632 133.336 246.753 132.589 246.996C131.843 247.22 131.208 247.537 130.685 247.948L128.893 244.336C129.752 243.776 130.779 243.347 131.973 243.048C133.187 242.731 134.391 242.572 135.585 242.572C138.049 242.572 139.953 243.141 141.297 244.28C142.66 245.4 143.341 247.164 143.341 249.572V258H138.385ZM133.905 258.252C132.692 258.252 131.665 258.047 130.825 257.636C129.985 257.225 129.341 256.665 128.893 255.956C128.464 255.247 128.249 254.453 128.249 253.576C128.249 252.643 128.483 251.84 128.949 251.168C129.435 250.477 130.172 249.955 131.161 249.6C132.151 249.227 133.429 249.04 134.997 249.04H138.581V251.812H135.725C134.867 251.812 134.26 251.952 133.905 252.232C133.569 252.512 133.401 252.885 133.401 253.352C133.401 253.819 133.579 254.192 133.933 254.472C134.288 254.752 134.773 254.892 135.389 254.892C135.968 254.892 136.491 254.752 136.957 254.472C137.443 254.173 137.797 253.725 138.021 253.128L138.749 255.088C138.469 256.133 137.919 256.927 137.097 257.468C136.295 257.991 135.231 258.252 133.905 258.252ZM157.182 258L152.562 250.916L156.846 248.396L163.454 258H157.182ZM146.542 258V242.824H151.862V258H146.542ZM150.294 252.596V248.424H155.782V252.596H150.294ZM157.378 251L152.394 250.496L157.49 242.824H163.118L157.378 251ZM167.374 258.252C166.478 258.252 165.722 257.953 165.106 257.356C164.49 256.759 164.182 256.003 164.182 255.088C164.182 254.136 164.49 253.38 165.106 252.82C165.722 252.241 166.478 251.952 167.374 251.952C168.27 251.952 169.026 252.241 169.642 252.82C170.258 253.38 170.566 254.136 170.566 255.088C170.566 256.003 170.258 256.759 169.642 257.356C169.026 257.953 168.27 258.252 167.374 258.252ZM175.303 258.252C174.407 258.252 173.651 257.953 173.035 257.356C172.419 256.759 172.111 256.003 172.111 255.088C172.111 254.136 172.419 253.38 173.035 252.82C173.651 252.241 174.407 251.952 175.303 251.952C176.199 251.952 176.955 252.241 177.571 252.82C178.187 253.38 178.495 254.136 178.495 255.088C178.495 256.003 178.187 256.759 177.571 257.356C176.955 257.953 176.199 258.252 175.303 258.252ZM183.233 258.252C182.337 258.252 181.581 257.953 180.965 257.356C180.349 256.759 180.041 256.003 180.041 255.088C180.041 254.136 180.349 253.38 180.965 252.82C181.581 252.241 182.337 251.952 183.233 251.952C184.129 251.952 184.885 252.241 185.501 252.82C186.117 253.38 186.425 254.136 186.425 255.088C186.425 256.003 186.117 256.759 185.501 257.356C184.885 257.953 184.129 258.252 183.233 258.252Z" fill="#3C3C3C"/>
<path d="M73.56 279.6H74.436V288H73.56V279.6ZM68.304 288H67.416V279.6H68.304V288ZM73.644 284.124H68.208V283.344H73.644V284.124ZM79.6595 288.06C79.0515 288.06 78.5035 287.924 78.0155 287.652C77.5355 287.372 77.1555 286.992 76.8755 286.512C76.5955 286.024 76.4555 285.468 76.4555 284.844C76.4555 284.212 76.5955 283.656 76.8755 283.176C77.1555 282.696 77.5355 282.32 78.0155 282.048C78.4955 281.776 79.0435 281.64 79.6595 281.64C80.2835 281.64 80.8355 281.776 81.3155 282.048C81.8035 282.32 82.1835 282.696 82.4555 283.176C82.7355 283.656 82.8755 284.212 82.8755 284.844C82.8755 285.468 82.7355 286.024 82.4555 286.512C82.1835 286.992 81.8035 287.372 81.3155 287.652C80.8275 287.924 80.2755 288.06 79.6595 288.06ZM79.6595 287.304C80.1155 287.304 80.5195 287.204 80.8715 287.004C81.2235 286.796 81.4995 286.508 81.6995 286.14C81.9075 285.764 82.0115 285.332 82.0115 284.844C82.0115 284.348 81.9075 283.916 81.6995 283.548C81.4995 283.18 81.2235 282.896 80.8715 282.696C80.5195 282.488 80.1195 282.384 79.6715 282.384C79.2235 282.384 78.8235 282.488 78.4715 282.696C78.1195 282.896 77.8395 283.18 77.6315 283.548C77.4235 283.916 77.3195 284.348 77.3195 284.844C77.3195 285.332 77.4235 285.764 77.6315 286.14C77.8395 286.508 78.1195 286.796 78.4715 287.004C78.8235 287.204 79.2195 287.304 79.6595 287.304ZM90.477 288.06C89.853 288.06 89.293 287.924 88.797 287.652C88.309 287.372 87.925 286.992 87.645 286.512C87.365 286.024 87.225 285.468 87.225 284.844C87.225 284.212 87.365 283.656 87.645 283.176C87.925 282.696 88.309 282.32 88.797 282.048C89.293 281.776 89.853 281.64 90.477 281.64C91.013 281.64 91.497 281.744 91.929 281.952C92.361 282.16 92.701 282.472 92.949 282.888L92.313 283.32C92.097 283 91.829 282.764 91.509 282.612C91.189 282.46 90.841 282.384 90.465 282.384C90.017 282.384 89.613 282.488 89.253 282.696C88.893 282.896 88.609 283.18 88.401 283.548C88.193 283.916 88.089 284.348 88.089 284.844C88.089 285.34 88.193 285.772 88.401 286.14C88.609 286.508 88.893 286.796 89.253 287.004C89.613 287.204 90.017 287.304 90.465 287.304C90.841 287.304 91.189 287.228 91.509 287.076C91.829 286.924 92.097 286.692 92.313 286.38L92.949 286.812C92.701 287.22 92.361 287.532 91.929 287.748C91.497 287.956 91.013 288.06 90.477 288.06ZM99.2187 288L96.6267 284.88L97.3347 284.46L100.227 288H99.2187ZM94.5987 288V281.7H95.4507V288H94.5987ZM95.1867 285.192V284.46H97.2147V285.192H95.1867ZM97.4067 284.94L96.6147 284.82L99.1227 281.7H100.047L97.4067 284.94ZM103.941 288.06C103.333 288.06 102.785 287.924 102.297 287.652C101.817 287.372 101.437 286.992 101.157 286.512C100.877 286.024 100.737 285.468 100.737 284.844C100.737 284.212 100.877 283.656 101.157 283.176C101.437 282.696 101.817 282.32 102.297 282.048C102.777 281.776 103.325 281.64 103.941 281.64C104.565 281.64 105.117 281.776 105.597 282.048C106.085 282.32 106.465 282.696 106.737 283.176C107.017 283.656 107.157 284.212 107.157 284.844C107.157 285.468 107.017 286.024 106.737 286.512C106.465 286.992 106.085 287.372 105.597 287.652C105.109 287.924 104.557 288.06 103.941 288.06ZM103.941 287.304C104.397 287.304 104.801 287.204 105.153 287.004C105.505 286.796 105.781 286.508 105.981 286.14C106.189 285.764 106.293 285.332 106.293 284.844C106.293 284.348 106.189 283.916 105.981 283.548C105.781 283.18 105.505 282.896 105.153 282.696C104.801 282.488 104.401 282.384 103.953 282.384C103.505 282.384 103.105 282.488 102.753 282.696C102.401 282.896 102.121 283.18 101.913 283.548C101.705 283.916 101.601 284.348 101.601 284.844C101.601 285.332 101.705 285.764 101.913 286.14C102.121 286.508 102.401 286.796 102.753 287.004C103.105 287.204 103.501 287.304 103.941 287.304ZM112.23 288.06C111.686 288.06 111.194 287.936 110.754 287.688C110.314 287.432 109.962 287.068 109.698 286.596C109.442 286.116 109.314 285.532 109.314 284.844C109.314 284.156 109.442 283.576 109.698 283.104C109.954 282.624 110.302 282.26 110.742 282.012C111.182 281.764 111.678 281.64 112.23 281.64C112.83 281.64 113.366 281.776 113.838 282.048C114.318 282.312 114.694 282.688 114.966 283.176C115.238 283.656 115.374 284.212 115.374 284.844C115.374 285.484 115.238 286.044 114.966 286.524C114.694 287.004 114.318 287.38 113.838 287.652C113.366 287.924 112.83 288.06 112.23 288.06ZM108.978 290.328V281.7H109.794V283.596L109.71 284.856L109.83 286.128V290.328H108.978ZM112.17 287.304C112.618 287.304 113.018 287.204 113.37 287.004C113.722 286.796 114.002 286.508 114.21 286.14C114.418 285.764 114.522 285.332 114.522 284.844C114.522 284.356 114.418 283.928 114.21 283.56C114.002 283.192 113.722 282.904 113.37 282.696C113.018 282.488 112.618 282.384 112.17 282.384C111.722 282.384 111.318 282.488 110.958 282.696C110.606 282.904 110.326 283.192 110.118 283.56C109.918 283.928 109.818 284.356 109.818 284.844C109.818 285.332 109.918 285.764 110.118 286.14C110.326 286.508 110.606 286.796 110.958 287.004C111.318 287.204 111.722 287.304 112.17 287.304ZM119.796 288.06C119.188 288.06 118.64 287.924 118.152 287.652C117.672 287.372 117.292 286.992 117.012 286.512C116.732 286.024 116.592 285.468 116.592 284.844C116.592 284.212 116.732 283.656 117.012 283.176C117.292 282.696 117.672 282.32 118.152 282.048C118.632 281.776 119.18 281.64 119.796 281.64C120.42 281.64 120.972 281.776 121.452 282.048C121.94 282.32 122.32 282.696 122.592 283.176C122.872 283.656 123.012 284.212 123.012 284.844C123.012 285.468 122.872 286.024 122.592 286.512C122.32 286.992 121.94 287.372 121.452 287.652C120.964 287.924 120.412 288.06 119.796 288.06ZM119.796 287.304C120.252 287.304 120.656 287.204 121.008 287.004C121.36 286.796 121.636 286.508 121.836 286.14C122.044 285.764 122.148 285.332 122.148 284.844C122.148 284.348 122.044 283.916 121.836 283.548C121.636 283.18 121.36 282.896 121.008 282.696C120.656 282.488 120.256 282.384 119.808 282.384C119.36 282.384 118.96 282.488 118.608 282.696C118.256 282.896 117.976 283.18 117.768 283.548C117.56 283.916 117.456 284.348 117.456 284.844C117.456 285.332 117.56 285.764 117.768 286.14C117.976 286.508 118.256 286.796 118.608 287.004C118.96 287.204 119.356 287.304 119.796 287.304ZM127.974 288V281.7H130.758C131.47 281.7 132.03 281.836 132.438 282.108C132.854 282.38 133.062 282.78 133.062 283.308C133.062 283.82 132.866 284.216 132.474 284.496C132.082 284.768 131.566 284.904 130.926 284.904L131.094 284.652C131.846 284.652 132.398 284.792 132.75 285.072C133.102 285.352 133.278 285.756 133.278 286.284C133.278 286.828 133.078 287.252 132.678 287.556C132.286 287.852 131.674 288 130.842 288H127.974ZM128.802 287.328H130.806C131.342 287.328 131.746 287.244 132.018 287.076C132.298 286.9 132.438 286.62 132.438 286.236C132.438 285.852 132.314 285.572 132.066 285.396C131.818 285.22 131.426 285.132 130.89 285.132H128.802V287.328ZM128.802 284.496H130.698C131.186 284.496 131.558 284.404 131.814 284.22C132.078 284.036 132.21 283.768 132.21 283.416C132.21 283.064 132.078 282.8 131.814 282.624C131.558 282.448 131.186 282.36 130.698 282.36H128.802V284.496ZM137.915 288.06C137.291 288.06 136.731 287.924 136.235 287.652C135.747 287.372 135.363 286.992 135.083 286.512C134.803 286.024 134.663 285.468 134.663 284.844C134.663 284.212 134.803 283.656 135.083 283.176C135.363 282.696 135.747 282.32 136.235 282.048C136.731 281.776 137.291 281.64 137.915 281.64C138.451 281.64 138.935 281.744 139.367 281.952C139.799 282.16 140.139 282.472 140.387 282.888L139.751 283.32C139.535 283 139.267 282.764 138.947 282.612C138.627 282.46 138.279 282.384 137.903 282.384C137.455 282.384 137.051 282.488 136.691 282.696C136.331 282.896 136.047 283.18 135.839 283.548C135.631 283.916 135.527 284.348 135.527 284.844C135.527 285.34 135.631 285.772 135.839 286.14C136.047 286.508 136.331 286.796 136.691 287.004C137.051 287.204 137.455 287.304 137.903 287.304C138.279 287.304 138.627 287.228 138.947 287.076C139.267 286.924 139.535 286.692 139.751 286.38L140.387 286.812C140.139 287.22 139.799 287.532 139.367 287.748C138.935 287.956 138.451 288.06 137.915 288.06ZM144.631 288.06C143.975 288.06 143.399 287.924 142.903 287.652C142.407 287.372 142.019 286.992 141.739 286.512C141.459 286.024 141.319 285.468 141.319 284.844C141.319 284.22 141.451 283.668 141.715 283.188C141.987 282.708 142.355 282.332 142.819 282.06C143.291 281.78 143.819 281.64 144.403 281.64C144.995 281.64 145.519 281.776 145.975 282.048C146.439 282.312 146.803 282.688 147.067 283.176C147.331 283.656 147.463 284.212 147.463 284.844C147.463 284.884 147.459 284.928 147.451 284.976C147.451 285.016 147.451 285.06 147.451 285.108H141.967V284.472H146.995L146.659 284.724C146.659 284.268 146.559 283.864 146.359 283.512C146.167 283.152 145.903 282.872 145.567 282.672C145.231 282.472 144.843 282.372 144.403 282.372C143.971 282.372 143.583 282.472 143.239 282.672C142.895 282.872 142.627 283.152 142.435 283.512C142.243 283.872 142.147 284.284 142.147 284.748V284.88C142.147 285.36 142.251 285.784 142.459 286.152C142.675 286.512 142.971 286.796 143.347 287.004C143.731 287.204 144.167 287.304 144.655 287.304C145.039 287.304 145.395 287.236 145.723 287.1C146.059 286.964 146.347 286.756 146.587 286.476L147.067 287.028C146.787 287.364 146.435 287.62 146.011 287.796C145.595 287.972 145.135 288.06 144.631 288.06ZM155.321 288.072C154.809 288.072 154.353 287.988 153.953 287.82C153.561 287.652 153.225 287.396 152.945 287.052C152.665 286.708 152.453 286.284 152.309 285.78C152.165 285.268 152.093 284.676 152.093 284.004C152.093 283.404 152.149 282.88 152.261 282.432C152.373 281.976 152.529 281.584 152.729 281.256C152.929 280.928 153.161 280.652 153.425 280.428C153.697 280.196 153.989 280.012 154.301 279.876C154.621 279.732 154.949 279.624 155.285 279.552L158.117 278.892L158.261 279.684L155.597 280.284C155.429 280.324 155.225 280.38 154.985 280.452C154.753 280.524 154.513 280.632 154.265 280.776C154.025 280.92 153.801 281.12 153.593 281.376C153.385 281.632 153.217 281.964 153.089 282.372C152.969 282.772 152.909 283.272 152.909 283.872C152.909 284 152.913 284.104 152.921 284.184C152.929 284.256 152.937 284.336 152.945 284.424C152.961 284.504 152.973 284.624 152.981 284.784L152.609 284.472C152.697 283.984 152.877 283.56 153.149 283.2C153.421 282.832 153.761 282.548 154.169 282.348C154.585 282.14 155.045 282.036 155.549 282.036C156.133 282.036 156.653 282.164 157.109 282.42C157.565 282.668 157.921 283.016 158.177 283.464C158.441 283.912 158.573 284.432 158.573 285.024C158.573 285.608 158.437 286.132 158.165 286.596C157.901 287.06 157.525 287.424 157.037 287.688C156.549 287.944 155.977 288.072 155.321 288.072ZM155.417 287.364C155.865 287.364 156.261 287.264 156.605 287.064C156.949 286.856 157.217 286.576 157.409 286.224C157.609 285.872 157.709 285.476 157.709 285.036C157.709 284.604 157.609 284.22 157.409 283.884C157.217 283.548 156.949 283.284 156.605 283.092C156.261 282.892 155.861 282.792 155.405 282.792C154.957 282.792 154.561 282.888 154.217 283.08C153.873 283.264 153.601 283.524 153.401 283.86C153.209 284.196 153.113 284.584 153.113 285.024C153.113 285.464 153.209 285.86 153.401 286.212C153.601 286.564 153.873 286.844 154.217 287.052C154.569 287.26 154.969 287.364 155.417 287.364ZM160.332 290.388C160.036 290.388 159.752 290.34 159.48 290.244C159.216 290.148 158.988 290.004 158.796 289.812L159.192 289.176C159.352 289.328 159.524 289.444 159.708 289.524C159.9 289.612 160.112 289.656 160.344 289.656C160.624 289.656 160.864 289.576 161.064 289.416C161.272 289.264 161.468 288.992 161.652 288.6L162.06 287.676L162.156 287.544L164.748 281.7H165.588L162.432 288.756C162.256 289.164 162.06 289.488 161.844 289.728C161.636 289.968 161.408 290.136 161.16 290.232C160.912 290.336 160.636 290.388 160.332 290.388ZM162.012 288.18L159.108 281.7H159.996L162.564 287.484L162.012 288.18ZM170.966 287.592V282.444H167.93L167.858 283.848C167.842 284.272 167.814 284.688 167.774 285.096C167.742 285.504 167.682 285.88 167.594 286.224C167.514 286.56 167.398 286.836 167.246 287.052C167.094 287.26 166.898 287.38 166.658 287.412L165.806 287.256C166.054 287.264 166.258 287.176 166.418 286.992C166.578 286.8 166.702 286.54 166.79 286.212C166.878 285.884 166.942 285.512 166.982 285.096C167.022 284.672 167.054 284.24 167.078 283.8L167.162 281.7H171.818V287.592H170.966ZM165.542 289.524V287.256H172.802V289.524H171.998V288H166.346V289.524H165.542ZM177.162 288.06C176.506 288.06 175.93 287.924 175.434 287.652C174.938 287.372 174.55 286.992 174.27 286.512C173.99 286.024 173.85 285.468 173.85 284.844C173.85 284.22 173.982 283.668 174.246 283.188C174.518 282.708 174.886 282.332 175.35 282.06C175.822 281.78 176.35 281.64 176.934 281.64C177.526 281.64 178.05 281.776 178.506 282.048C178.97 282.312 179.334 282.688 179.598 283.176C179.862 283.656 179.994 284.212 179.994 284.844C179.994 284.884 179.99 284.928 179.982 284.976C179.982 285.016 179.982 285.06 179.982 285.108H174.498V284.472H179.526L179.19 284.724C179.19 284.268 179.09 283.864 178.89 283.512C178.698 283.152 178.434 282.872 178.098 282.672C177.762 282.472 177.374 282.372 176.934 282.372C176.502 282.372 176.114 282.472 175.77 282.672C175.426 282.872 175.158 283.152 174.966 283.512C174.774 283.872 174.678 284.284 174.678 284.748V284.88C174.678 285.36 174.782 285.784 174.99 286.152C175.206 286.512 175.502 286.796 175.878 287.004C176.262 287.204 176.698 287.304 177.186 287.304C177.57 287.304 177.926 287.236 178.254 287.1C178.59 286.964 178.878 286.756 179.118 286.476L179.598 287.028C179.318 287.364 178.966 287.62 178.542 287.796C178.126 287.972 177.666 288.06 177.162 288.06ZM182.799 288V282.216L183.015 282.444H180.411V281.7H186.039V282.444H183.435L183.651 282.216V288H182.799ZM191.611 288V282.216L191.827 282.444H189.223V281.7H194.851V282.444H192.247L192.463 282.216V288H191.611ZM199.995 288V286.608L199.959 286.38V284.052C199.959 283.516 199.807 283.104 199.503 282.816C199.207 282.528 198.763 282.384 198.171 282.384C197.763 282.384 197.375 282.452 197.007 282.588C196.639 282.724 196.327 282.904 196.071 283.128L195.687 282.492C196.007 282.22 196.391 282.012 196.839 281.868C197.287 281.716 197.759 281.64 198.255 281.64C199.071 281.64 199.699 281.844 200.139 282.252C200.587 282.652 200.811 283.264 200.811 284.088V288H199.995ZM197.823 288.06C197.351 288.06 196.939 287.984 196.587 287.832C196.243 287.672 195.979 287.456 195.795 287.184C195.611 286.904 195.519 286.584 195.519 286.224C195.519 285.896 195.595 285.6 195.747 285.336C195.907 285.064 196.163 284.848 196.515 284.688C196.875 284.52 197.355 284.436 197.955 284.436H200.127V285.072H197.979C197.371 285.072 196.947 285.18 196.707 285.396C196.475 285.612 196.359 285.88 196.359 286.2C196.359 286.56 196.499 286.848 196.779 287.064C197.059 287.28 197.451 287.388 197.955 287.388C198.435 287.388 198.847 287.28 199.191 287.064C199.543 286.84 199.799 286.52 199.959 286.104L200.151 286.692C199.991 287.108 199.711 287.44 199.311 287.688C198.919 287.936 198.423 288.06 197.823 288.06ZM207.699 288L205.107 284.88L205.815 284.46L208.707 288H207.699ZM203.079 288V281.7H203.931V288H203.079ZM203.667 285.192V284.46H205.695V285.192H203.667ZM205.887 284.94L205.095 284.82L207.603 281.7H208.527L205.887 284.94Z" fill="#AFAFAF"/>
<defs>
<clipPath id="clip0_219_3974">
<rect width="527" height="180" fill="white" transform="translate(-199)"/>
</clipPath>
</defs>
</svg>
