<svg width="37" height="32" viewBox="0 0 37 32" fill="none" xmlns="http://www.w3.org/2000/svg">
<path fill-rule="evenodd" clip-rule="evenodd" d="M36.0426 14.0166C36.0426 20.0237 30.0472 24.5016 25.0296 28.0044L20.0119 31.5073C19.5687 31.9531 18.8126 31.5946 18.8752 30.9702L19.1711 28.0044C18.7904 28.0227 18.4072 28.0331 18.0213 28.0331C8.06813 28.0331 0 21.7575 0 14.0166C0 6.27565 8.06813 0 18.0213 0C27.9745 0 36.0426 6.27565 36.0426 14.0166ZM8.67692 16.6864C9.7828 16.6864 10.6793 15.7899 10.6793 14.684C10.6793 13.5781 9.7828 12.6817 8.67692 12.6817C7.57104 12.6817 6.67455 13.5781 6.67455 14.684C6.67455 15.7899 7.57104 16.6864 8.67692 16.6864ZM20.3574 14.684C20.3574 15.7899 19.4609 16.6864 18.355 16.6864C17.2491 16.6864 16.3527 15.7899 16.3527 14.684C16.3527 13.5781 17.2491 12.6817 18.355 12.6817C19.4609 12.6817 20.3574 13.5781 20.3574 14.684ZM28.0331 16.6864C29.139 16.6864 30.0355 15.7899 30.0355 14.684C30.0355 13.5781 29.139 12.6817 28.0331 12.6817C26.9272 12.6817 26.0308 13.5781 26.0308 14.684C26.0308 15.7899 26.9272 16.6864 28.0331 16.6864Z" fill="white"/>
</svg>
