<svg width="32" height="30" viewBox="0 0 32 30" fill="none" xmlns="http://www.w3.org/2000/svg">
<path d="M6.24414 1.66744H12.0175C12.3342 1.66754 12.639 1.78785 12.8705 2.00407C13.1019 2.22028 13.2426 2.51628 13.2642 2.83224C13.2858 3.14821 13.1866 3.4606 12.9868 3.70628C12.7869 3.95195 12.5012 4.11261 12.1875 4.15578L12.0175 4.16744H6.24414C5.2942 4.1673 4.3796 4.52768 3.68509 5.17578C2.99058 5.82389 2.56791 6.71143 2.50247 7.65911L2.49414 7.91744V23.7508C2.49445 24.7007 2.85524 25.6151 3.50366 26.3093C4.15207 27.0035 5.03978 27.4258 5.98747 27.4908L6.24414 27.5008H22.0775C23.028 27.5013 23.9432 27.1409 24.6381 26.4924C25.333 25.8439 25.7557 24.9557 25.8208 24.0074L25.8291 23.7508V22.9208C25.8292 22.6041 25.9495 22.2992 26.1658 22.0678C26.382 21.8364 26.678 21.6957 26.9939 21.6741C27.3099 21.6525 27.6223 21.7516 27.868 21.9515C28.1136 22.1514 28.2743 22.437 28.3175 22.7508L28.3291 22.9208V23.7508C28.3288 25.3508 27.7149 26.8897 26.6139 28.0506C25.5128 29.2115 24.0085 29.9059 22.4108 29.9908L22.0775 30.0008H6.24414C4.64387 30.0009 3.10452 29.3872 1.94328 28.2861C0.782044 27.185 0.087395 25.6805 0.00247415 24.0824L-0.00585938 23.7491V7.91578C-0.0055766 6.31607 0.608095 4.77737 1.70878 3.61653C2.80947 2.45569 4.31338 1.7611 5.91081 1.67578L6.24414 1.66744ZM19.1675 5.90744V1.25078C19.1673 1.02085 19.2306 0.795345 19.3503 0.599058C19.4701 0.40277 19.6416 0.243309 19.8461 0.138216C20.0506 0.0331235 20.2802 -0.0135294 20.5095 0.00338916C20.7388 0.0203078 20.9589 0.100143 21.1458 0.234112L21.2825 0.347445L31.2741 9.93078C31.7408 10.3791 31.7825 11.0974 31.4008 11.5941L31.2741 11.7358L21.2825 21.3224C21.1166 21.4818 20.9099 21.5922 20.6853 21.6417C20.4607 21.6911 20.2267 21.6776 20.0093 21.6027C19.7918 21.5277 19.5992 21.3942 19.4528 21.2168C19.3063 21.0395 19.2116 20.8252 19.1791 20.5974L19.1675 20.4191V15.7508L18.6341 15.7391C14.2041 15.7258 10.4175 17.5458 7.19081 21.2424C6.36581 22.1874 4.81581 21.4608 5.01581 20.2208C6.39414 11.6541 11.0141 6.81411 18.6658 5.95744L19.1675 5.90744Z" fill="white"/>
</svg>
